<svg width="28" height="28" viewBox="0 0 28 28" fill="none" xmlns="http://www.w3.org/2000/svg">
<rect width="28" height="28" fill="white"/>
<path fill-rule="evenodd" clip-rule="evenodd" d="M19.8739 8.39994C20.5179 7.37459 20.4857 6.0634 19.7922 5.07086C19.3372 4.41935 18.6413 3.97608 17.8585 3.83918C17.0758 3.70229 16.2707 3.88305 15.6216 4.34146C14.9548 4.88751 14.4836 5.63558 14.2792 6.47284L14 7.25392L13.721 6.47225C13.5164 5.63517 13.0451 4.88733 12.3783 4.34146C11.7292 3.88283 10.9239 3.70192 10.141 3.83883C9.35803 3.97574 8.66197 4.41916 8.20698 5.07086C7.51374 6.06351 7.48171 7.37462 8.12567 8.39994H4.19995V14H5.59995V23.8026L22.4 23.8V14H23.8V8.39994H19.8739ZM15.6011 6.93566C15.7227 6.37874 16.0117 5.87233 16.4294 5.48444C16.7745 5.24054 17.2028 5.14442 17.6191 5.21745C18.0355 5.29047 18.4054 5.52658 18.647 5.8734C19.1541 6.59886 18.9806 7.59765 18.2584 8.10944C18.0006 8.29321 17.6931 8.39449 17.3765 8.39995H15.0782L15.6011 6.93566ZM9.35279 5.87294C8.84576 6.5978 9.01851 7.59596 9.73965 8.10827C10.0003 8.29377 10.3112 8.3955 10.6311 8.39994H12.9212L12.3983 6.93612C12.2767 6.37919 11.9876 5.87279 11.5699 5.4849C11.3036 5.29539 10.9848 5.19346 10.6579 5.19324C10.5658 5.19344 10.4739 5.20144 10.3832 5.21716C9.96601 5.28962 9.59507 5.52569 9.35279 5.87294ZM5.59999 9.79994H13.3V12.6H5.59999V9.79994ZM13.3 14H7.00002V22.4026L13.3 22.4015V14ZM21 22.4L14.7 22.4011V14H21V22.4ZM14.7 12.6H22.4V9.79994H14.7V12.6Z" fill="black"/>
</svg>
