<svg width="28" height="28" viewBox="0 0 28 28" fill="none" xmlns="http://www.w3.org/2000/svg">
<path d="M23.7999 22.4H22.3999C22.3999 17.78 18.6199 14 13.9999 14C9.37995 14 5.59995 17.78 5.59995 22.4H4.19995C4.19995 16.94 8.53995 12.6 13.9999 12.6C19.4599 12.6 23.7999 16.94 23.7999 22.4Z" fill="black"/>
<path fill-rule="evenodd" clip-rule="evenodd" d="M10.5 7.69995C10.5 9.65995 12.04 11.2 14 11.2C15.96 11.2 17.5 9.65995 17.5 7.69995C17.5 5.73995 15.96 4.19995 14 4.19995C12.04 4.19995 10.5 5.73995 10.5 7.69995ZM11.9 7.69995C11.9 6.57995 12.88 5.59995 14 5.59995C15.12 5.59995 16.1 6.57995 16.1 7.69995C16.1 8.81995 15.12 9.79995 14 9.79995C12.88 9.79995 11.9 8.81995 11.9 7.69995Z" fill="black"/>
</svg>
