<svg width="28" height="28" viewBox="0 0 28 28" fill="none" xmlns="http://www.w3.org/2000/svg">
<path fill-rule="evenodd" clip-rule="evenodd" d="M8.3999 14C8.3999 17.08 10.9199 19.6 13.9999 19.6C17.0799 19.6 19.5999 17.08 19.5999 14C19.5999 10.92 17.0799 8.40002 13.9999 8.40002C10.9199 8.40002 8.3999 10.92 8.3999 14ZM9.79994 14C9.79994 11.62 11.6199 9.80001 13.9999 9.80001C16.3799 9.80001 18.1999 11.62 18.1999 14C18.1999 16.38 16.3799 18.2 13.9999 18.2C11.6199 18.2 9.79994 16.38 9.79994 14Z" fill="black"/>
<path fill-rule="evenodd" clip-rule="evenodd" d="M1.54001 14.42C1.68001 14.7 6.58001 22.4 14 22.4C21.42 22.4 26.32 14.7 26.46 14.42L26.74 14L26.46 13.58C26.32 13.3 21.42 5.59998 14 5.59998C6.58001 5.59998 1.68001 13.3 1.54001 13.58L1.26001 14L1.54001 14.42ZM14 21C8.26002 21 3.92002 15.54 2.94002 14C3.92002 12.46 8.26002 6.99998 14 6.99998C19.74 6.99998 24.08 12.46 25.06 14C24.08 15.54 19.74 21 14 21Z" fill="black"/>
</svg>
