<svg viewBox="0 0 86 40" xmlns="http://www.w3.org/2000/svg">
  <g fill="none" fill-rule="evenodd">
    <path d="M30.743 13c2.423 0 3.885.648 5.288 1.83l-1.865 2.232c-1.038-.858-1.961-1.354-3.519-1.354-2.153 0-3.865 1.888-3.865 4.157v.038c0 2.441 1.692 4.234 4.077 4.234 1.077 0 2.038-.267 2.788-.801v-1.907h-2.98v-2.536h5.845v5.797c-1.384 1.163-3.288 2.117-5.75 2.117-4.191 0-7.076-2.918-7.076-6.866v-.038c0-3.795 2.98-6.903 7.057-6.903zm19.184 0c2.539 0 4.058.839 5.307 2.06l-1.884 2.154c-1.038-.934-2.096-1.506-3.442-1.506-2.269 0-3.903 1.869-3.903 4.157v.038c0 2.289 1.596 4.196 3.903 4.196 1.538 0 2.48-.61 3.538-1.564l1.885 1.888c-1.385 1.468-2.923 2.384-5.52 2.384-3.96 0-6.902-3.033-6.902-6.866v-.038c0-3.795 2.884-6.903 7.018-6.903zm13.095 0c4.153 0 7.134 3.07 7.134 6.865v.038c0 3.795-3.02 6.904-7.173 6.904-4.153 0-7.134-3.07-7.134-6.866v-.038c0-3.795 3.02-6.903 7.173-6.903zm-57.772.038c1.961 0 3.634.61 5 1.697l-1.54 2.212c-1.191-.82-2.364-1.315-3.499-1.315-1.135 0-1.73.514-1.73 1.163v.038c0 .877.576 1.163 2.903 1.755 2.73.705 4.269 1.678 4.269 4.004v.038c0 2.651-2.038 4.138-4.942 4.138-2.038 0-4.096-.705-5.711-2.135l1.75-2.08c1.211.992 2.48 1.622 4.019 1.622 1.211 0 1.942-.477 1.942-1.259v-.038c0-.743-.462-1.125-2.711-1.697C2.288 20.495.538 19.751.538 17.1v-.038c0-2.422 1.962-4.024 4.712-4.024zm11.825 0c1.961 0 3.634.61 5 1.697l-1.539 2.212c-1.192-.82-2.365-1.315-3.5-1.315-1.134 0-1.73.514-1.73 1.163v.038c0 .877.577 1.163 2.904 1.755 2.73.705 4.268 1.678 4.268 4.004v.038c0 2.651-2.038 4.138-4.941 4.138-2.039 0-4.096-.705-5.711-2.135l1.75-2.08c1.21.992 2.48 1.622 4.018 1.622 1.212 0 1.942-.477 1.942-1.259v-.038c0-.743-.461-1.125-2.71-1.697-2.712-.686-4.462-1.43-4.462-4.081v-.038c0-2.422 1.961-4.024 4.711-4.024zm23.372 10.36c.922 0 1.669.74 1.669 1.654 0 .914-.747 1.655-1.669 1.655-.921 0-1.668-.74-1.668-1.655 0-.913.747-1.654 1.668-1.654zm34.285-10.17 3.538 5.646 3.538-5.645H85v13.349h-2.942v-8.715l-3.788 5.702h-.077l-3.75-5.645v8.658H71.54v-13.35h3.192zm-11.749 2.48c-2.384 0-4.038 1.869-4.038 4.157v.038c0 2.289 1.692 4.196 4.077 4.196 2.384 0 4.038-1.869 4.038-4.158v-.038c0-2.288-1.692-4.195-4.077-4.195z" fill="#000"/>
    <path d="M0 0h86v40H0z"/>
  </g>
</svg>