<svg width="73" height="28" viewBox="0 0 73 28" fill="none" xmlns="http://www.w3.org/2000/svg">
<rect width="73" height="28" rx="14" fill="#F5F5F5"/>
<path d="M14 23.45C8.71911 23.45 4.55 19.1416 4.55 14C4.55 8.86376 8.86376 4.55 14 4.55C19.1362 4.55 23.45 8.86376 23.45 14C23.45 19.1416 19.2809 23.45 14 23.45Z" fill="#B1A373" stroke="#222222" stroke-width="1.1" stroke-miterlimit="10"/>
<path d="M17.1372 14.6499C16.7086 14.0733 16.1338 13.6433 15.4227 13.2133C13.1335 11.9232 12.4126 11.4932 12.4126 10.7699C12.4126 10.1933 13.1335 9.61669 14.1271 9.61669C15.1207 9.61669 15.9877 10.0467 16.8449 10.7699L17.2736 11.2V8.61005H17.1274C16.2702 8.03342 15.2668 7.75 14.1173 7.75C11.8281 7.75 10.25 9.18667 10.25 11.0534C10.25 11.7766 10.3961 12.3434 10.9709 12.9201C11.5456 13.6433 12.1204 13.9267 14.1271 15.0799C14.7018 15.3634 15.5591 16.0866 15.5591 16.9466C15.5591 17.8067 14.7018 18.2367 13.8446 18.2367C12.1301 18.2367 10.9806 16.9466 10.6884 16.6534L10.2597 16.0768V19.0968H10.4059C11.4092 19.82 12.6951 20.25 13.8446 20.25C16.1338 20.25 17.7119 18.8133 17.7119 16.8C17.8581 15.94 17.5658 15.2168 17.1372 14.6401V14.6499Z" fill="#222222"/>
<path d="M36.7941 14.898V11.888H35.8561V14.758H34.3301V7.856H35.8561V10.572H36.7941V7.632H38.3621V14.898H36.7941ZM28.1981 14.142V8.416H29.8501V10.096H31.6001V8.402H33.2521V14.142H28.1981ZM31.6001 11.37H29.8501V12.84H31.6001V11.37ZM38.3621 15.528V20.12H36.7241V16.83H29.7101V15.528H38.3621ZM49.7194 12.728H51.3294V14.072H49.7194V20.106H48.0954V7.632H49.7194V12.728ZM41.9494 8.388H45.4774V9.648H41.9494V8.388ZM40.1154 11.426V10.18H47.2274V11.426H40.1154ZM46.6394 13.918C46.6394 14.4407 46.448 14.8793 46.0654 15.234C45.6827 15.5887 45.1787 15.8313 44.5534 15.962V16.774C45.1134 16.7367 45.6314 16.6993 46.1074 16.662C46.5927 16.6247 47.022 16.5827 47.3954 16.536C47.414 16.7413 47.4327 16.9513 47.4514 17.166C47.47 17.3713 47.4934 17.5767 47.5214 17.782C46.2707 17.9593 45.0154 18.0853 43.7554 18.16C42.5047 18.2253 41.2494 18.258 39.9894 18.258L39.7654 16.9C40.288 16.9 40.8107 16.9 41.3334 16.9C41.856 16.8907 42.3787 16.8767 42.9014 16.858V15.976C42.248 15.8733 41.716 15.64 41.3054 15.276C40.904 14.9027 40.7034 14.45 40.7034 13.918C40.7034 13.61 40.778 13.3253 40.9274 13.064C41.0767 12.8027 41.282 12.5833 41.5434 12.406C41.814 12.2193 42.1267 12.0747 42.4814 11.972C42.8454 11.8693 43.242 11.818 43.6714 11.818C44.1007 11.818 44.4974 11.8693 44.8614 11.972C45.2254 12.0747 45.538 12.2193 45.7994 12.406C46.0607 12.5833 46.266 12.8027 46.4154 13.064C46.5647 13.3253 46.6394 13.61 46.6394 13.918ZM45.0154 13.918C45.0154 13.6753 44.8894 13.4747 44.6374 13.316C44.3854 13.148 44.0634 13.064 43.6714 13.064C43.2794 13.064 42.962 13.148 42.7194 13.316C42.4767 13.4747 42.3554 13.6753 42.3554 13.918C42.3554 14.1513 42.4767 14.3567 42.7194 14.534C42.962 14.702 43.2794 14.786 43.6714 14.786C44.0634 14.786 44.3854 14.702 44.6374 14.534C44.8894 14.3567 45.0154 14.1513 45.0154 13.918ZM60.6566 14.744V11.958H58.8086V10.642H60.6566V7.632H62.2946V14.744H60.6566ZM52.4106 8.43H58.9906V9.774H56.5966C56.6246 10.222 56.718 10.6327 56.8766 11.006C57.0446 11.37 57.2546 11.6967 57.5066 11.986C57.7586 12.266 58.0433 12.5087 58.3606 12.714C58.6873 12.9193 59.0233 13.078 59.3686 13.19L58.4726 14.478C58.2393 14.3847 57.992 14.2587 57.7306 14.1C57.4693 13.9413 57.2126 13.7593 56.9606 13.554C56.718 13.3393 56.4893 13.106 56.2746 12.854C56.0693 12.5927 55.9013 12.3173 55.7706 12.028C55.6773 12.336 55.528 12.6347 55.3226 12.924C55.1266 13.2133 54.8933 13.484 54.6226 13.736C54.3613 13.9787 54.0766 14.198 53.7686 14.394C53.47 14.5807 53.1713 14.73 52.8726 14.842L51.9066 13.554C52.784 13.2367 53.4933 12.756 54.0346 12.112C54.576 11.468 54.87 10.6887 54.9166 9.774H52.4106V8.43ZM54.0066 19.952V15.346H62.2946V19.952H54.0066ZM60.6566 16.606H55.6306V18.678H60.6566V16.606Z" fill="#777777"/>
</svg>
