<svg width="87" height="28" viewBox="0 0 87 28" fill="none" xmlns="http://www.w3.org/2000/svg">
<g clipPath="url(#clip0_7655_96737)">
<rect width="86.3333" height="28" rx="14" fill="#F5F5F5"/>
<path fill-rule="evenodd" clipRule="evenodd" d="M33.8192 13.7666C33.4832 15.0686 32.5452 16.3566 31.3692 17.0566L30.4312 15.9366C31.9992 14.9146 33.0212 13.0386 33.0212 10.3786V8.50265H34.6032V10.3646C34.6032 12.7726 35.4432 14.6766 36.9552 15.5726L36.0172 16.7346C35.2192 16.2306 34.1552 14.9986 33.8192 13.7666ZM77.9052 11.1206L77.2052 12.4086C75.5392 12.1706 73.3551 11.1626 72.7252 9.73465C72.0951 11.1626 70.0652 12.1566 68.2592 12.3946L67.5732 11.1206C69.6592 10.9106 71.8852 9.77665 71.8852 7.90064V7.53665H73.5792V7.90064C73.5792 9.77665 76.1132 11.0366 77.9052 11.1206ZM77.0652 17.4346C77.0652 18.8626 75.4832 19.7446 72.7252 19.7446C69.9671 19.7446 68.3712 18.8626 68.3712 17.4346C68.3712 16.0066 69.9672 15.1106 72.7112 15.1106C75.4832 15.1106 77.0652 16.0066 77.0652 17.4346ZM70.0652 17.4346C70.0652 18.0786 71.1012 18.4566 72.7112 18.4566C74.3352 18.4566 75.3852 18.0786 75.3852 17.4346C75.3852 16.8046 74.3352 16.4126 72.7112 16.4126C71.1012 16.4126 70.0652 16.8046 70.0652 17.4346ZM41.3652 7.29865V19.7726H39.8112V13.5146H38.7752V19.1986H37.2492V7.52264H38.7752V12.1986H39.8112V7.29865H41.3652ZM53.1672 7.29865V14.5366H51.5432V12.9826H49.7652V11.6666H51.5432V10.2946H49.7652V8.99265H51.5432V7.29865H53.1672ZM49.1352 7.91465V13.7946H43.2692V7.94264H44.9072V9.70665H47.5112V7.91465H49.1352ZM44.9072 12.4926H47.5112V10.9806H44.9072V12.4926ZM53.1812 15.1666V19.7866H51.5432V16.4686H44.7392V15.1666H53.1812ZM65.5852 7.29865V19.7726H64.0172V13.4866H63.0092V19.1986H61.4692V7.52264H63.0092V12.1846H64.0172V7.29865H65.5852ZM60.2512 8.57265V16.5386H55.2672V8.58664H56.8912V11.4566H58.6272V8.57265H60.2512ZM56.8912 15.2506H58.6272V12.7166H56.8912V15.2506ZM78.3531 13.2346V14.5366H67.0832V13.2346H71.8992V11.6246H73.5372V13.2346H78.3531Z" fill="#777777"/>
<g clipPath="url(#clip1_7655_96737)">
<path fillRule="evenodd" clipRule="evenodd" d="M-5.37305 21.2531C-5.37305 21.7315 -5.27971 22.2053 -5.09838 22.6474C-4.91704 23.0894 -4.65125 23.4911 -4.31619 23.8294C-3.98112 24.1678 -3.58334 24.4362 -3.14556 24.6193C-2.70777 24.8024 -2.23856 24.8966 -1.76471 24.8966C-1.29085 24.8966 -0.821637 24.8024 -0.383853 24.6193C0.0539308 24.4362 0.451712 24.1678 0.786777 23.8294C1.12184 23.4911 1.38763 23.0894 1.56897 22.6474C1.7503 22.2053 1.84364 21.7315 1.84364 21.2531C1.84364 20.2867 1.46347 19.36 0.786777 18.6767C0.110082 17.9934 -0.807714 17.6095 -1.76471 17.6095C-2.7217 17.6095 -3.63949 17.9934 -4.31619 18.6767C-4.99288 19.36 -5.37305 20.2867 -5.37305 21.2531Z" fill="#222222"/>
<path fillRule="evenodd" clipRule="evenodd" d="M16.5503 21.2531C16.5503 21.7315 16.6436 22.2053 16.825 22.6474C17.0063 23.0894 17.2721 23.4911 17.6072 23.8294C17.9422 24.1678 18.34 24.4362 18.7778 24.6193C19.2156 24.8024 19.6848 24.8966 20.1586 24.8966C20.6325 24.8966 21.1017 24.8024 21.5395 24.6193C21.9773 24.4362 22.3751 24.1678 22.7101 23.8294C23.0452 23.4911 23.311 23.0894 23.4923 22.6474C23.6736 22.2053 23.767 21.7315 23.767 21.2531C23.767 20.2867 23.3868 19.36 22.7101 18.6767C22.0334 17.9934 21.1156 17.6095 20.1586 17.6095C19.2016 17.6095 18.2838 17.9934 17.6072 18.6767C16.9305 19.36 16.5503 20.2867 16.5503 21.2531Z" fill="#222222"/>
</g>
<path d="M14.826 -0.017199C14.2103 -0.605801 13.3949 -0.934264 12.5471 -0.935242H-10.232L-10.4134 -0.93021C-11.2596 -0.881924 -12.0554 -0.508715 -12.6379 0.112952C-13.2204 0.734618 -13.5454 1.55768 -13.5464 2.41349V21.1022L-13.5394 21.1918C-13.5182 21.3202 -13.4526 21.4368 -13.3543 21.521C-13.2559 21.6052 -13.1312 21.6515 -13.0023 21.6516H24.3068L24.4005 21.6436C24.5058 21.6248 24.6033 21.5753 24.6809 21.501C24.7585 21.4268 24.8128 21.3311 24.837 21.226L24.9795 20.6021L26.3865 15.2127L26.4035 15.1111C26.4134 14.9733 26.3716 14.8364 26.2839 14.7267L24.1454 12.0642L23.1459 6.93147L23.108 6.71915C22.7393 4.9019 21.4907 3.69644 19.9471 3.69644H15.8634V2.41349L15.8585 2.23036C15.8111 1.37555 15.4417 0.571404 14.826 -0.017199Z" fill="#A3B7CD"/>
<path fillRule="evenodd" clipRule="evenodd" d="M-13.0024 21.1022H24.3067L24.773 19.0576H-13.0024V21.1022Z" fill="#404041"/>
<path fillRule="evenodd" clipRule="evenodd" d="M22.0777 7.13477L22.0747 7.11465C21.8495 5.70593 21.0155 4.7963 19.9482 4.7963H11.6423C11.0434 4.7963 10.5562 5.28834 10.5562 5.89309V11.7695H22.9806L22.0777 7.13477Z" fill="white"/>
<path fillRule="evenodd" clipRule="evenodd" d="M12.5471 -0.935242C13.3949 -0.934264 14.2103 -0.605801 14.826 -0.017199C15.4417 0.571404 15.8111 1.37555 15.8585 2.23036L15.8634 2.41349V3.69644H19.9471C21.4907 3.69644 22.7393 4.9019 23.108 6.71915L23.1459 6.93147L24.1454 12.0642L26.2839 14.7267C26.3716 14.8364 26.4134 14.9733 26.4035 15.1111L26.3865 15.2127L24.9795 20.6021L24.837 21.226C24.8128 21.3311 24.7585 21.4268 24.6809 21.501C24.6033 21.5753 24.5058 21.6248 24.4005 21.6436L24.3068 21.6516H-13.0023C-13.1312 21.6515 -13.2559 21.6052 -13.3543 21.521C-13.4526 21.4368 -13.5182 21.3202 -13.5394 21.1918L-13.5464 21.1022V2.41349C-13.5454 1.55768 -13.2204 0.734618 -12.6379 0.112952C-12.0554 -0.508715 -11.2596 -0.881924 -10.4134 -0.93021L-10.232 -0.935242H12.5461H12.5471ZM16.0279 19.607H-12.4582V20.5528H15.7937L16.0279 19.607ZM24.0896 19.607H17.1489L16.9157 20.5528H23.8664L23.9232 20.3385L24.0896 19.607ZM12.5471 0.164568H6.74742C7.23869 0.709945 7.55758 1.41733 7.6064 2.19917L7.61338 2.4145V18.5081H9.46688V5.89203C9.46688 4.73487 10.3597 3.78297 11.4868 3.70247L11.6412 3.69644L11.6721 3.69845L11.704 3.69644H14.7753V2.41349C14.7747 1.81694 14.5398 1.24497 14.122 0.82314C13.7043 0.401312 13.1379 0.164095 12.5471 0.163562V0.164568ZM15.4399 12.8702H10.5571V13.4257H11.4609C11.6002 13.4212 11.7358 13.4709 11.8398 13.5646C11.9438 13.6583 12.0081 13.7887 12.0195 13.929C12.0309 14.0692 11.9885 14.2085 11.901 14.318C11.8135 14.4276 11.6877 14.499 11.5496 14.5174L11.4609 14.5245H10.5561V18.5092H16.2989L17.1639 15.0175L15.4399 12.8702ZM25.1708 15.5619H18.1504L17.421 18.5102H24.4005L25.1708 15.5619ZM4.29701 0.164568H-10.231C-11.4069 0.164568 -12.3715 1.08829 -12.4532 2.25451L-12.4592 2.41551V18.4749H6.5252V2.41349C6.52493 1.81676 6.29012 1.24454 5.87234 0.82249C5.45457 0.400444 4.88798 0.163089 4.29701 0.162556V0.164568ZM19.7309 16.4454C19.8729 16.4456 20.0091 16.5029 20.1093 16.6045C20.2096 16.7061 20.2658 16.8438 20.2655 16.9872C20.2652 17.1307 20.2085 17.2681 20.1079 17.3694C20.0073 17.4706 19.8709 17.5273 19.7289 17.5271C19.5869 17.5268 19.4509 17.4696 19.3508 17.3681C19.2506 17.2666 19.1945 17.129 19.1947 16.9857C19.195 16.8424 19.2516 16.7051 19.3522 16.6039C19.4527 16.5028 19.5889 16.4461 19.7309 16.4464V16.4454ZM23.1738 16.4454C23.3158 16.4456 23.452 16.5029 23.5522 16.6045C23.6525 16.7061 23.7087 16.8438 23.7084 16.9872C23.7081 17.1307 23.6515 17.2681 23.5508 17.3694C23.4502 17.4706 23.3139 17.5273 23.1718 17.5271C23.0299 17.5268 22.8939 17.4696 22.7937 17.3681C22.6935 17.2666 22.6374 17.129 22.6377 16.9857C22.6379 16.8424 22.6946 16.7051 22.7951 16.6039C22.8956 16.5028 23.0319 16.4461 23.1738 16.4464V16.4454ZM23.391 12.8702H16.841L18.1195 14.4631H24.6695L23.391 12.8702ZM19.9471 4.79625H14.1146C14.5251 5.28527 14.8301 5.91719 14.9895 6.65274L15.0423 6.93247L15.984 11.7724H22.9795L22.0766 7.13473L22.0736 7.11661C21.8494 5.70789 21.0144 4.79625 19.9471 4.79625ZM11.6412 4.79021C11.3736 4.79318 11.1162 4.89487 10.9176 5.07613C10.719 5.25738 10.5929 5.50569 10.563 5.7743L10.5561 5.89304V11.7714H14.8759L13.9731 7.13473L13.9701 7.11661C13.7558 5.7743 12.9895 4.8848 11.995 4.80228L11.8435 4.79625H11.704C11.6821 4.79625 11.6622 4.79222 11.6412 4.79021ZM20.824 7.39333L20.8489 7.47886L21.1977 9.18643C21.2294 9.3224 21.2085 9.46546 21.1393 9.58642C21.0701 9.70737 20.9578 9.79709 20.8253 9.83728C20.6928 9.87746 20.5501 9.86508 20.4264 9.80266C20.3026 9.74024 20.2071 9.63248 20.1594 9.50138L20.1315 9.4078L19.7827 7.70023C19.7579 7.56603 19.7833 7.4273 19.8541 7.31099C19.9249 7.19469 20.036 7.1091 20.1658 7.07085C20.2956 7.0326 20.4348 7.04442 20.5565 7.10401C20.6781 7.1636 20.7735 7.26672 20.824 7.39333ZM17.5595 7.39333L17.5844 7.47886L17.9332 9.18643C17.9582 9.32007 17.9334 9.45833 17.8634 9.57456C17.7935 9.69079 17.6834 9.77676 17.5544 9.81589C17.4254 9.85502 17.2866 9.84453 17.1648 9.78646C17.043 9.72838 16.9469 9.62683 16.8948 9.50138L16.8669 9.4078L16.5191 7.70023C16.4893 7.56433 16.5117 7.42206 16.5819 7.30224C16.652 7.18243 16.7647 7.09404 16.897 7.05501C17.0294 7.01597 17.1714 7.02921 17.2944 7.09203C17.4175 7.15486 17.5122 7.26257 17.5595 7.39333Z" fill="#222222"/>
<g clipPath="url(#clip2_7655_96737)">
<path fillRule="evenodd" clipRule="evenodd" d="M11.4077 21.2531C11.4077 21.7316 11.501 22.2054 11.6824 22.6474C11.8637 23.0895 12.1295 23.4911 12.4646 23.8295C12.7996 24.1678 13.1974 24.4362 13.6352 24.6193C14.073 24.8024 14.5422 24.8966 15.0161 24.8966C15.4899 24.8966 15.9591 24.8024 16.3969 24.6193C16.8347 24.4362 17.2325 24.1678 17.5675 23.8295C17.9026 23.4911 18.1684 23.0895 18.3497 22.6474C18.5311 22.2054 18.6244 21.7316 18.6244 21.2531C18.6244 20.2868 18.2442 19.36 17.5675 18.6767C16.8908 17.9934 15.973 17.6095 15.0161 17.6095C14.0591 17.6095 13.1413 17.9934 12.4646 18.6767C11.7879 19.36 11.4077 20.2868 11.4077 21.2531Z" fill="#222222"/>
<path fillRule="evenodd" clipRule="evenodd" d="M13.6719 21.2531C13.6717 21.4313 13.7064 21.6077 13.7737 21.7723C13.8411 21.9369 13.94 22.0865 14.0646 22.2126C14.1893 22.3386 14.3373 22.4386 14.5002 22.5069C14.6631 22.5752 14.8378 22.6104 15.0142 22.6105C15.1906 22.6107 15.3653 22.5757 15.5283 22.5077C15.6913 22.4396 15.8395 22.3398 15.9643 22.214C16.0891 22.0881 16.1882 21.9387 16.2558 21.7742C16.3234 21.6096 16.3583 21.4333 16.3585 21.2552C16.3588 20.8954 16.2177 20.5503 15.9661 20.2956C15.7144 20.0409 15.3729 19.8976 15.0167 19.8972C14.6604 19.8968 14.3186 20.0394 14.0664 20.2935C13.8142 20.5476 13.6723 20.8924 13.6719 21.2521" fill="#404041"/>
</g>
</g>
<defs>
<clipPath id="clip0_7655_96737">
<rect width="86.3333" height="28" rx="14" fill="white"/>
</clipPath>
<clipPath id="clip1_7655_96737">
<rect width="37.8672" height="7.04361" fill="white" transform="translate(-13.0034 18.5555)"/>
</clipPath>
<clipPath id="clip2_7655_96737">
<rect width="7.21668" height="7.28712" fill="white" transform="translate(11.4077 17.6095)"/>
</clipPath>
</defs>
</svg>
