<svg width="87" height="28" viewBox="0 0 87 28"  fill="none" xmlns="http://www.w3.org/2000/svg">
<g clip-path="url(#clip0_7655_96736)">
<rect width="86.3333" height="28" rx="14" fill="#A3B7CD"/>
<path fill-rule="evenodd" clip-rule="evenodd" d="M33.8194 13.7666C33.4834 15.0686 32.5454 16.3566 31.3694 17.0566L30.4314 15.9366C31.9994 14.9146 33.0214 13.0386 33.0214 10.3786V8.50265H34.6034V10.3646C34.6034 12.7726 35.4434 14.6766 36.9554 15.5726L36.0174 16.7346C35.2194 16.2306 34.1554 14.9986 33.8194 13.7666ZM77.9054 11.1206L77.2054 12.4086C75.5394 12.1706 73.3554 11.1626 72.7254 9.73465C72.0954 11.1626 70.0654 12.1566 68.2594 12.3946L67.5734 11.1206C69.6594 10.9106 71.8854 9.77665 71.8854 7.90064V7.53665H73.5794V7.90064C73.5794 9.77665 76.1134 11.0366 77.9054 11.1206ZM77.0654 17.4346C77.0654 18.8626 75.4834 19.7446 72.7254 19.7446C69.9674 19.7446 68.3714 18.8626 68.3714 17.4346C68.3714 16.0066 69.9674 15.1106 72.7114 15.1106C75.4834 15.1106 77.0654 16.0066 77.0654 17.4346ZM70.0654 17.4346C70.0654 18.0786 71.1014 18.4566 72.7114 18.4566C74.3354 18.4566 75.3854 18.0786 75.3854 17.4346C75.3854 16.8046 74.3354 16.4126 72.7114 16.4126C71.1014 16.4126 70.0654 16.8046 70.0654 17.4346ZM41.3654 7.29865V19.7726H39.8114V13.5146H38.7754V19.1986H37.2494V7.52264H38.7754V12.1986H39.8114V7.29865H41.3654ZM53.1674 7.29865V14.5366H51.5434V12.9826H49.7654V11.6666H51.5434V10.2946H49.7654V8.99265H51.5434V7.29865H53.1674ZM49.1354 7.91465V13.7946H43.2694V7.94264H44.9074V9.70665H47.5114V7.91465H49.1354ZM44.9074 12.4926H47.5114V10.9806H44.9074V12.4926ZM53.1814 15.1666V19.7866H51.5434V16.4686H44.7394V15.1666H53.1814ZM65.5854 7.29865V19.7726H64.0174V13.4866H63.0094V19.1986H61.4694V7.52264H63.0094V12.1846H64.0174V7.29865H65.5854ZM60.2514 8.57265V16.5386H55.2674V8.58664H56.8914V11.4566H58.6274V8.57265H60.2514ZM56.8914 15.2506H58.6274V12.7166H56.8914V15.2506ZM78.3534 13.2346V14.5366H67.0834V13.2346H71.8994V11.6246H73.5374V13.2346H78.3534Z" fill="#222222"/>
<g clip-path="url(#clip1_7655_96736)">
<path fill-rule="evenodd" clip-rule="evenodd" d="M-5.37305 21.2531C-5.37305 21.7315 -5.27971 22.2053 -5.09838 22.6474C-4.91704 23.0894 -4.65125 23.4911 -4.31619 23.8294C-3.98112 24.1678 -3.58334 24.4362 -3.14556 24.6193C-2.70777 24.8024 -2.23856 24.8966 -1.76471 24.8966C-1.29085 24.8966 -0.821637 24.8024 -0.383853 24.6193C0.0539309 24.4362 0.451711 24.1678 0.786777 23.8294C1.12184 23.4911 1.38763 23.0894 1.56897 22.6474C1.7503 22.2053 1.84364 21.7315 1.84364 21.2531C1.84364 20.2867 1.46347 19.36 0.786777 18.6767C0.110082 17.9934 -0.807714 17.6095 -1.76471 17.6095C-2.7217 17.6095 -3.63949 17.9934 -4.31619 18.6767C-4.99288 19.36 -5.37305 20.2867 -5.37305 21.2531" fill="#222222"/>
<path fill-rule="evenodd" clip-rule="evenodd" d="M16.55 21.2531C16.55 21.7315 16.6434 22.2053 16.8247 22.6474C17.0061 23.0894 17.2718 23.4911 17.6069 23.8294C17.942 24.1678 18.3398 24.4362 18.7775 24.6193C19.2153 24.8024 19.6845 24.8966 20.1584 24.8966C20.6322 24.8966 21.1015 24.8024 21.5392 24.6193C21.977 24.4362 22.3748 24.1678 22.7099 23.8294C23.0449 23.4911 23.3107 23.0894 23.4921 22.6474C23.6734 22.2053 23.7667 21.7315 23.7667 21.2531C23.7667 20.2867 23.3866 19.36 22.7099 18.6767C22.0332 17.9934 21.1154 17.6095 20.1584 17.6095C19.2014 17.6095 18.2836 17.9934 17.6069 18.6767C16.9302 19.36 16.55 20.2867 16.55 21.2531" fill="#222222"/>
</g>
<path d="M14.8258 -0.017199C14.2101 -0.605801 13.3947 -0.934264 12.5468 -0.935242H-10.2323L-10.4136 -0.93021C-11.2598 -0.881924 -12.0557 -0.508715 -12.6382 0.112952C-13.2207 0.734618 -13.5457 1.55768 -13.5466 2.41349V21.1022L-13.5397 21.1918C-13.5184 21.3202 -13.4528 21.4368 -13.3545 21.521C-13.2562 21.6052 -13.1315 21.6515 -13.0025 21.6516H24.3066L24.4002 21.6436C24.5055 21.6248 24.6031 21.5753 24.6807 21.501C24.7583 21.4268 24.8125 21.3311 24.8367 21.226L24.9792 20.6021L26.3863 15.2127L26.4032 15.1111C26.4132 14.9733 26.3713 14.8364 26.2836 14.7267L24.1451 12.0642L23.1456 6.93147L23.1078 6.71915C22.7391 4.9019 21.4905 3.69644 19.9469 3.69644H15.8632V2.41349L15.8582 2.23036C15.8109 1.37555 15.4415 0.571404 14.8258 -0.017199Z" fill="#A3B7CD"/>
<path fill-rule="evenodd" clip-rule="evenodd" d="M-13.0024 21.1022H24.3067L24.773 19.0576H-13.0024V21.1022Z" fill="#404041"/>
<path fill-rule="evenodd" clip-rule="evenodd" d="M22.0775 7.13477L22.0745 7.11465C21.8493 5.70593 21.0152 4.7963 19.948 4.7963H11.6421C11.0432 4.7963 10.5559 5.28834 10.5559 5.89309V11.7695H22.9803L22.0775 7.13477V7.13477Z" fill="white"/>
<path fill-rule="evenodd" clip-rule="evenodd" d="M12.5468 -0.935242C13.3947 -0.934264 14.2101 -0.605801 14.8258 -0.017199C15.4415 0.571403 15.8109 1.37555 15.8582 2.23036L15.8632 2.41349V3.69644H19.9469C21.4905 3.69644 22.7391 4.9019 23.1078 6.71915L23.1456 6.93147L24.1451 12.0642L26.2836 14.7267C26.3713 14.8364 26.4132 14.9733 26.4032 15.1111L26.3863 15.2127L24.9792 20.6021L24.8367 21.226C24.8125 21.3311 24.7583 21.4268 24.6807 21.501C24.603 21.5753 24.5055 21.6248 24.4002 21.6436L24.3066 21.6516H-13.0025C-13.1315 21.6515 -13.2562 21.6052 -13.3545 21.521C-13.4528 21.4368 -13.5184 21.3202 -13.5397 21.1918L-13.5466 21.1022V2.41349C-13.5457 1.55768 -13.2207 0.734618 -12.6382 0.112952C-12.0557 -0.508715 -11.2598 -0.881924 -10.4136 -0.93021L-10.2323 -0.935242H12.5458H12.5468ZM16.0276 19.607H-12.4584V20.5528H15.7934L16.0276 19.607ZM24.0893 19.607H17.1487L16.9155 20.5528H23.8661L23.9229 20.3385L24.0893 19.607ZM12.5468 0.164568H6.74717C7.23845 0.709945 7.55733 1.41732 7.60616 2.19917L7.61313 2.4145V18.5081H9.46663V5.89203C9.46663 4.73487 10.3595 3.78297 11.4865 3.70247L11.641 3.69644L11.6719 3.69845L11.7038 3.69644H14.775V2.41349C14.7745 1.81694 14.5396 1.24497 14.1218 0.82314C13.7041 0.401312 13.1376 0.164095 12.5468 0.163562V0.164568ZM15.4397 12.8702H10.5568V13.4257H11.4606C11.5999 13.4212 11.7356 13.4709 11.8396 13.5646C11.9435 13.6583 12.0079 13.7887 12.0193 13.929C12.0307 14.0692 11.9882 14.2085 11.9008 14.318C11.8133 14.4276 11.6875 14.499 11.5493 14.5174L11.4606 14.5245H10.5558V18.5092H16.2987L17.1636 15.0175L15.4397 12.8702V12.8702ZM25.1705 15.5619H18.1502L17.4207 18.5102H24.4002L25.1705 15.5619ZM4.29677 0.164568H-10.2313C-11.4071 0.164568 -12.3718 1.08829 -12.4535 2.25451L-12.4594 2.41551V18.4749H6.52495V2.41349C6.52469 1.81676 6.28988 1.24454 5.8721 0.82249C5.45432 0.400444 4.88773 0.163089 4.29677 0.162556V0.164568ZM19.7306 16.4454C19.8727 16.4456 20.0088 16.5029 20.1091 16.6045C20.2093 16.7061 20.2655 16.8438 20.2652 16.9872C20.265 17.1307 20.2083 17.2681 20.1077 17.3694C20.007 17.4706 19.8707 17.5273 19.7286 17.5271C19.5867 17.5268 19.4507 17.4696 19.3505 17.3681C19.2504 17.2666 19.1942 17.129 19.1945 16.9857C19.1948 16.8424 19.2514 16.7051 19.3519 16.6039C19.4525 16.5028 19.5887 16.4461 19.7306 16.4464V16.4454ZM23.1735 16.4454C23.3156 16.4456 23.4517 16.5029 23.552 16.6045C23.6523 16.7061 23.7084 16.8438 23.7082 16.9872C23.7079 17.1307 23.6512 17.2681 23.5506 17.3694C23.45 17.4706 23.3136 17.5273 23.1716 17.5271C23.0296 17.5268 22.8936 17.4696 22.7935 17.3681C22.6933 17.2666 22.6372 17.129 22.6374 16.9857C22.6377 16.8424 22.6943 16.7051 22.7949 16.6039C22.8954 16.5028 23.0316 16.4461 23.1735 16.4464V16.4454ZM23.3908 12.8702H16.8408L18.1193 14.4631H24.6693L23.3908 12.8702ZM19.9469 4.79625H14.1143C14.5249 5.28528 14.8298 5.91719 14.9893 6.65274L15.0421 6.93247L15.9838 11.7724H22.9792L22.0764 7.13473L22.0734 7.11661C21.8492 5.70789 21.0141 4.79625 19.9469 4.79625V4.79625ZM11.641 4.79021C11.3733 4.79318 11.116 4.89487 10.9174 5.07612C10.7188 5.25738 10.5927 5.50569 10.5628 5.7743L10.5558 5.89304V11.7714H14.8757L13.9728 7.13473L13.9698 7.11661C13.7556 5.7743 12.9893 4.8848 11.9948 4.80228L11.8433 4.79625H11.7038C11.6819 4.79625 11.6619 4.79222 11.641 4.79021V4.79021ZM20.8238 7.39333L20.8487 7.47886L21.1975 9.18643C21.2292 9.3224 21.2083 9.46546 21.1391 9.58641C21.0699 9.70737 20.9576 9.79709 20.8251 9.83728C20.6926 9.87746 20.5499 9.86508 20.4261 9.80266C20.3024 9.74024 20.2069 9.63248 20.1591 9.50138L20.1312 9.4078L19.7824 7.70023C19.7576 7.56603 19.7831 7.4273 19.8539 7.31099C19.9247 7.19469 20.0358 7.1091 20.1656 7.07085C20.2953 7.0326 20.4346 7.04442 20.5562 7.10401C20.6778 7.1636 20.7732 7.26672 20.8238 7.39333ZM17.5592 7.39333L17.5842 7.47886L17.9329 9.18643C17.958 9.32007 17.9331 9.45833 17.8632 9.57456C17.7932 9.69079 17.6832 9.77676 17.5542 9.81589C17.4252 9.85502 17.2864 9.84453 17.1646 9.78646C17.0428 9.72838 16.9466 9.62683 16.8946 9.50138L16.8667 9.4078L16.5189 7.70023C16.489 7.56434 16.5114 7.42206 16.5816 7.30224C16.6518 7.18243 16.7645 7.09404 16.8968 7.05501C17.0291 7.01597 17.1712 7.02921 17.2942 7.09203C17.4172 7.15486 17.512 7.26257 17.5592 7.39333V7.39333Z" fill="#222222"/>
<g clip-path="url(#clip2_7655_96736)">
<path fill-rule="evenodd" clip-rule="evenodd" d="M11.408 21.2531C11.408 21.7316 11.5013 22.2054 11.6826 22.6474C11.864 23.0895 12.1298 23.4911 12.4648 23.8295C12.7999 24.1678 13.1977 24.4362 13.6354 24.6193C14.0732 24.8024 14.5424 24.8966 15.0163 24.8966C15.4902 24.8966 15.9594 24.8024 16.3972 24.6193C16.8349 24.4362 17.2327 24.1678 17.5678 23.8295C17.9028 23.4911 18.1686 23.0895 18.35 22.6474C18.5313 22.2054 18.6246 21.7316 18.6246 21.2531C18.6246 20.2868 18.2445 19.36 17.5678 18.6767C16.8911 17.9934 15.9733 17.6095 15.0163 17.6095C14.0593 17.6095 13.1415 17.9934 12.4648 18.6767C11.7881 19.36 11.408 20.2868 11.408 21.2531" fill="#222222"/>
<path fill-rule="evenodd" clip-rule="evenodd" d="M13.6719 21.2531C13.6717 21.4313 13.7064 21.6077 13.7737 21.7723C13.8411 21.9369 13.94 22.0865 14.0646 22.2126C14.1893 22.3386 14.3373 22.4386 14.5002 22.5069C14.6631 22.5752 14.8378 22.6104 15.0142 22.6105C15.1906 22.6107 15.3653 22.5757 15.5283 22.5077C15.6913 22.4396 15.8395 22.3398 15.9643 22.214C16.0891 22.0881 16.1882 21.9387 16.2558 21.7742C16.3234 21.6096 16.3583 21.4333 16.3585 21.2552C16.3588 20.8954 16.2177 20.5503 15.9661 20.2956C15.7144 20.0409 15.3729 19.8976 15.0167 19.8972C14.6604 19.8968 14.3186 20.0394 14.0664 20.2935C13.8142 20.5476 13.6723 20.8924 13.6719 21.2521" fill="#404041"/>
</g>
</g>
<rect x="0.5" y="0.5" width="85.33" height="27" style="stroke-width:1.1;stroke:#222222" rx="13.5" stroke="#222222"/>
<defs>
<clipPath id="clip0_7655_96736">
<rect width="86.3333" height="28" rx="14" fill="white"/>
</clipPath>
<clipPath id="clip1_7655_96736">
<rect width="37.8672" height="7.04361" fill="white" transform="translate(-13.0034 18.5555)"/>
</clipPath>
<clipPath id="clip2_7655_96736">
<rect width="7.21668" height="7.28712" fill="white" transform="translate(11.408 17.6095)"/>
</clipPath>
</defs>
</svg>
