<svg width="63" height="28" viewBox="0 0 63 28" fill="none" xmlns="http://www.w3.org/2000/svg">
<rect x="0.194336" width="62.8052" height="28" rx="14" fill="#FF4C3C"/>
<path d="M28.6465 12.0517H26.4961C25.9023 12.0517 25.4209 12.5327 25.4209 13.1261C25.4209 13.7195 25.9023 14.2006 26.4961 14.2006H28.6465C29.2403 14.2006 29.7217 13.7195 29.7217 13.1261C29.7217 12.5327 29.2403 12.0517 28.6465 12.0517Z" fill="black"/>
<path d="M28.6479 12.0506C29.2406 12.0506 29.7231 12.5316 29.7231 13.1258C29.7231 13.7186 29.2422 14.201 28.6479 14.201H26.496C25.9032 14.201 25.4208 13.7201 25.4208 13.1258C25.4208 12.5331 25.9017 12.0506 26.496 12.0506H28.6479ZM28.6479 10.9785H26.496C25.312 10.9785 24.3486 11.9419 24.3486 13.1258C24.3486 14.3098 25.312 15.2732 26.496 15.2732H28.6479C29.8318 15.2732 30.7952 14.3098 30.7952 13.1258C30.7952 11.9419 29.8318 10.9785 28.6479 10.9785Z" fill="black"/>
<path d="M28.648 14.1991H26.4961C25.9034 14.1991 25.4209 13.7182 25.4209 13.1239C25.4209 12.5297 25.9018 12.0487 26.4961 12.0487H28.648C29.2408 12.0487 29.7232 12.5297 29.7232 13.1239C29.7232 13.7182 29.2423 14.1991 28.648 14.1991Z" fill="black"/>
<path d="M28.6479 10.9785H26.496C25.312 10.9785 24.3486 11.9419 24.3486 13.1258C24.3486 14.3098 25.312 15.2732 26.496 15.2732H28.6479C29.8318 15.2732 30.7952 14.3098 30.7952 13.1258C30.7952 11.9419 29.8318 10.9785 28.6479 10.9785Z" fill="black"/>
<path d="M28.6479 10.98H26.8084L26.7456 11.2787C26.5419 11.2726 26.1391 11.2526 25.6551 11.1516C24.8878 11.4793 24.3486 12.2405 24.3486 13.1258C24.3486 14.3098 25.312 15.2732 26.496 15.2732H28.6479C29.8318 15.2732 30.7952 14.3098 30.7952 13.1258C30.7952 11.9419 29.8318 10.9785 28.6479 10.9785V10.98ZM28.6479 14.201H26.496C25.9032 14.201 25.4208 13.7201 25.4208 13.1258C25.4208 12.5316 25.9017 12.0506 26.496 12.0506H28.6479C29.2406 12.0506 29.7231 12.5316 29.7231 13.1258C29.7231 13.7201 29.2422 14.201 28.6479 14.201Z" fill="black"/>
<path d="M49.929 11.3386L49.9198 7.68869H27.0817C26.8719 7.68869 26.4737 7.67797 26.0555 7.60445C26.1168 7.23992 26.1459 6.89684 26.1566 6.61809L26.2041 5.5H17.1124L17.0297 6.48177C16.9393 7.56157 15.6466 7.78671 14.8854 7.82654L13.4334 7.90005L14.5576 10.9817H12.1943V16.3485H18.1922L15.8304 19.571H20.701L16.878 27.9031L27.5933 17.1878V18.3381H34.7062V20.0428H40.2522L40.9092 19.715C42.9876 18.6796 44.4978 17.3303 45.4582 15.6424V19.9386H49.9182L49.9274 15.693H50.9996V11.3431H49.9274L49.929 11.3386Z" fill="black"/>
<path d="M27.0838 12.0547H13.2686V15.2773H20.3094L17.9477 18.4983H22.3741L20.3462 22.9216L27.9905 15.2773H23.8613L27.0838 12.0547Z" fill="white"/>
<path d="M14.9434 8.89834C17.1183 8.78959 18.0066 7.70827 18.1016 6.57333H20.6732C20.6456 7.44789 20.4404 8.24127 20.1126 8.81563C21.7407 8.52769 22.4376 7.57195 22.5188 6.57333H25.0904C25.0628 7.21662 24.9541 7.84458 24.7626 8.32398C25.5284 8.6931 26.5132 8.76202 27.0876 8.76202L26.596 11.1284C26.1303 11.1146 24.6401 11.0334 23.4776 10.0624C22.5203 10.8282 21.2904 11.156 20.2504 11.3336L19.5934 9.5554C18.5947 10.6628 17.0769 11.1284 15.8332 11.3336L14.9449 8.89987L14.9434 8.89834Z" fill="white"/>
<path d="M27.0838 12.0547H13.2686V15.2773H20.3094L17.9477 18.4983H22.3741L20.3462 22.9216L27.9905 15.2773H23.8613L27.0838 12.0547Z" fill="url(#paint0_linear_13641_11951)"/>
<path d="M14.9434 8.89834C17.1183 8.78959 18.0066 7.70827 18.1016 6.57333H20.6732C20.6456 7.44789 20.4404 8.24127 20.1126 8.81563C21.7407 8.52769 22.4376 7.57195 22.5188 6.57333H25.0904C25.0628 7.21662 24.9541 7.84458 24.7626 8.32398C25.5284 8.6931 26.5132 8.76202 27.0876 8.76202L26.596 11.1284C26.1303 11.1146 24.6401 11.0334 23.4776 10.0624C22.5203 10.8282 21.2904 11.156 20.2504 11.3336L19.5934 9.5554C18.5947 10.6628 17.0769 11.1284 15.8332 11.3336L14.9449 8.89987L14.9434 8.89834Z" fill="url(#paint1_linear_13641_11951)"/>
<path d="M45.6519 10.3721C45.6519 14.4416 43.8645 17.0438 40.4352 18.7531L39.1992 16.9443C42.0664 15.4326 43.2136 13.2561 43.2795 10.9633H39.5852V8.76233H45.6504V10.3721H45.6519ZM46.5342 8.76233H48.85V12.4122H49.9313V14.6177H48.85V18.8634H46.5342V8.76233Z" fill="white"/>
<path d="M38.1494 12.0369H31.3628V11.6066H37.984V10.4165H31.3628V9.9861H38.0942V8.76233H28.7207V13.3158H38.1494V12.0369Z" fill="white"/>
<path d="M28.667 17.2635H35.7798V18.9728H38.0957V15.7748H28.667V17.2635Z" fill="white"/>
<path d="M38.5931 13.8557H28.2256V15.2341H38.5931V13.8557Z" fill="white"/>
<path d="M28.6459 10.9801H26.8065L26.7437 11.2787C26.54 11.2726 26.1371 11.2527 25.6532 11.1516C24.8858 11.4794 24.3467 12.2406 24.3467 13.1259C24.3467 14.3098 25.3101 15.2732 26.494 15.2732H28.6459C29.8299 15.2732 30.7933 14.3098 30.7933 13.1259C30.7933 11.9419 29.8299 10.9785 28.6459 10.9785V10.9801Z" fill="black"/>
<path d="M28.6441 14.2022H26.4922C25.8995 14.2022 25.417 13.7212 25.417 13.127C25.417 12.5327 25.8979 12.0518 26.4922 12.0518H28.6441C29.2369 12.0518 29.7193 12.5327 29.7193 13.127C29.7193 13.7212 29.2384 14.2022 28.6441 14.2022Z" fill="white"/>
<defs>
<linearGradient id="paint0_linear_13641_11951" x1="14.5275" y1="17.4583" x2="27.7102" y2="9.84766" gradientUnits="userSpaceOnUse">
<stop offset="0.1" stop-color="#FA6C40"/>
<stop offset="0.2" stop-color="#FA5A4E"/>
<stop offset="0.42" stop-color="#FA346D"/>
<stop offset="0.54" stop-color="#F23479"/>
<stop offset="0.95" stop-color="#BC3FF8"/>
</linearGradient>
<linearGradient id="paint1_linear_13641_11951" x1="14.5298" y1="17.4571" x2="27.7125" y2="9.84641" gradientUnits="userSpaceOnUse">
<stop offset="0.1" stop-color="#FA6C40"/>
<stop offset="0.2" stop-color="#FA5A4E"/>
<stop offset="0.42" stop-color="#FA346D"/>
<stop offset="0.54" stop-color="#F23479"/>
<stop offset="0.95" stop-color="#BC3FF8"/>
</linearGradient>
</defs>
</svg>
