<svg width="63" height="28" viewBox="0 0 63 28" fill="none" xmlns="http://www.w3.org/2000/svg">
<rect width="62.81" height="28" rx="14" fill="#F5F5F5"/>
<g clip-path="url(#clip0_13641_11936)">
<path d="M49.7378 11.339L49.7286 7.68887H26.8886C26.6788 7.68887 26.2805 7.67815 25.8624 7.60463C25.9236 7.24007 25.9527 6.89696 25.9635 6.61818L26.0109 5.5H16.9185L16.8357 6.48185C16.7454 7.56174 15.4526 7.78691 14.6913 7.82673L13.2392 7.90026L14.3635 10.9821H12V16.3494H17.9983L15.6364 19.5722H20.5074L16.6841 27.9049L27.4002 17.1888V18.3391H34.5137V20.044H40.0602L40.7173 19.7162C42.7959 18.6807 44.3062 17.3313 45.2666 15.6433V19.9398H49.7271L49.7362 15.6938H50.8085V11.3436H49.7362L49.7378 11.339Z" fill="url(#paint0_linear_13641_11936)"/>
<path d="M24.5604 14.3811C24.3046 14.0273 24.153 13.5953 24.153 13.1266C24.153 12.7345 24.2587 12.3684 24.4425 12.0513H13.0723V15.2741H20.1137L17.7518 18.4969H22.1785L20.149 22.9206L27.7955 15.2741H23.6659L24.5604 14.3796V14.3811Z" fill="white"/>
<path d="M14.7451 8.89743C16.9202 8.78868 17.8086 7.70726 17.9036 6.57224H20.4754C20.4478 7.44687 20.2426 8.24031 19.9148 8.81472C21.543 8.52675 22.24 7.57094 22.3212 6.57224H24.893C24.8654 7.21557 24.7566 7.84359 24.5652 8.32303C25.3311 8.69218 26.316 8.76111 26.8904 8.76111L26.3987 11.1277C25.933 11.1139 24.4426 11.0327 23.28 10.0616C22.3227 10.8274 21.0927 11.1552 20.0526 11.3329L19.3955 9.55456C18.3968 10.662 16.8788 11.1277 15.6351 11.3329L14.7466 8.89897L14.7451 8.89743Z" fill="white"/>
<path d="M24.5604 14.3811C24.3046 14.0273 24.153 13.5953 24.153 13.1266C24.153 12.7345 24.2587 12.3684 24.4425 12.0513H13.0723V15.2741H20.1137L17.7518 18.4969H22.1785L20.149 22.9206L27.7955 15.2741H23.6659L24.5604 14.3796V14.3811Z" fill="url(#paint1_linear_13641_11936)"/>
<path d="M14.7451 8.89743C16.9202 8.78868 17.8086 7.70726 17.9036 6.57224H20.4754C20.4478 7.44687 20.2426 8.24031 19.9148 8.81472C21.543 8.52675 22.24 7.57094 22.3212 6.57224H24.893C24.8654 7.21557 24.7566 7.84359 24.5652 8.32303C25.3311 8.69218 26.316 8.76111 26.8904 8.76111L26.3987 11.1277C25.933 11.1139 24.4426 11.0327 23.28 10.0616C22.3227 10.8274 21.0927 11.1552 20.0526 11.3329L19.3955 9.55456C18.3968 10.662 16.8788 11.1277 15.6351 11.3329L14.7466 8.89897L14.7451 8.89743Z" fill="url(#paint2_linear_13641_11936)"/>
<path d="M45.4582 10.371C45.4582 14.4408 43.6706 17.0433 40.241 18.7527L39.0049 16.9437C41.8723 15.4319 43.0196 13.2553 43.0855 10.9622H39.3909V8.76111H45.4566V10.371H45.4582ZM46.3404 8.76111H48.6565V12.4113H49.7379V14.617H48.6565V18.863H46.3404V8.76111Z" fill="white"/>
<path d="M28.4736 17.2639H35.5871V18.9733H37.9031V15.775H28.4736V17.2639Z" fill="white"/>
<path d="M31.1711 12.036V11.6056H37.7929V10.4139H31.1711V9.98345H37.9032V8.75958H28.5273V10.9837C29.6762 11.025 30.5983 11.9686 30.5983 13.1266C30.5983 13.1894 30.5937 13.2522 30.5891 13.315H37.9583V12.036H31.1711Z" fill="white"/>
<path d="M28.453 14.2019H26.3009C25.7081 14.2019 25.2256 13.7209 25.2256 13.1266C25.2256 12.5323 25.7066 12.0513 26.3009 12.0513H28.453C29.0458 12.0513 29.5283 12.5323 29.5283 13.1266C29.5283 13.7209 29.0473 14.2019 28.453 14.2019Z" fill="white"/>
<path d="M30.4678 13.8557C30.2136 14.5573 29.6039 15.0903 28.8564 15.2343H38.3993V13.8557H30.4678Z" fill="white"/>
</g>
<defs>
<linearGradient id="paint0_linear_13641_11936" x1="12" y1="17.5" x2="51" y2="8" gradientUnits="userSpaceOnUse">
<stop offset="0.296875"/>
<stop offset="0.546875" stop-color="#777777"/>
</linearGradient>
<linearGradient id="paint1_linear_13641_11936" x1="14.3314" y1="17.4569" x2="27.5152" y2="9.84558" gradientUnits="userSpaceOnUse">
<stop offset="0.1" stop-color="#FA6C40"/>
<stop offset="0.2" stop-color="#FA5A4E"/>
<stop offset="0.42" stop-color="#FA346D"/>
<stop offset="0.54" stop-color="#F23479"/>
<stop offset="0.95" stop-color="#BC3FF8"/>
</linearGradient>
<linearGradient id="paint2_linear_13641_11936" x1="14.3315" y1="17.4569" x2="27.5153" y2="9.84559" gradientUnits="userSpaceOnUse">
<stop offset="0.1" stop-color="#FA6C40"/>
<stop offset="0.2" stop-color="#FA5A4E"/>
<stop offset="0.42" stop-color="#FA346D"/>
<stop offset="0.54" stop-color="#F23479"/>
<stop offset="0.95" stop-color="#BC3FF8"/>
</linearGradient>
<clipPath id="clip0_13641_11936">
<rect width="38.81" height="22.4019" fill="white" transform="translate(12 5.5)"/>
</clipPath>
</defs>
</svg>
