<svg width="75" height="28" viewBox="0 0 75 28" fill="none" xmlns="http://www.w3.org/2000/svg">
<g clip-path="url(#clip0_7655_96730)">
<rect width="74.6667" height="28" rx="14" fill="#FFCF02"/>
<path d="M42.0234 14.5926V13.2766H30.7534V14.5926H42.0234ZM32.0834 15.5446V16.8466H38.9434V19.7866H40.5674V15.5446H32.0834ZM41.8834 11.1906C40.5674 10.7846 39.8394 9.58065 39.8394 8.39065V7.71864H38.2574V8.39065C38.2574 9.63665 37.4034 10.9946 36.0594 11.4846L37.0254 12.6186C37.8094 12.2826 38.7194 11.4286 39.0554 10.6306C39.4194 11.3166 40.3994 12.1706 41.0154 12.3806L41.8834 11.1906ZM36.3394 10.7566C35.2754 10.3506 34.7574 9.53865 34.7574 8.40465V7.78865H33.1614V8.40465C33.1614 9.56665 32.3634 10.8406 30.9494 11.3586L31.9154 12.5206C32.7274 12.1986 33.6374 11.2886 33.9454 10.5886C34.2534 11.1626 34.8974 11.6946 35.4294 11.9326L36.3394 10.7566Z" fill="#222222"/>
<path d="M53.4787 19.7726V7.29865H51.9107V12.1846H50.9027V7.52264H49.3627V19.1986H50.9027V13.4866H51.9107V19.7726H53.4787ZM48.1447 16.5386V8.57265H46.5207V11.4566H44.7847V8.58665H43.1607V16.5386H48.1447ZM46.5207 15.2506H44.7847V12.7166H46.5207V15.2506Z" fill="#222222"/>
<path d="M64.962 17.4346C64.962 16.0066 63.38 15.1106 60.608 15.1106C57.864 15.1106 56.268 16.0066 56.268 17.4346C56.268 18.8626 57.864 19.7446 60.622 19.7446C63.38 19.7446 64.962 18.8626 64.962 17.4346ZM60.622 9.73465C61.252 11.1626 63.436 12.1706 65.102 12.4086L65.802 11.1206C64.01 11.0366 61.476 9.77664 61.476 7.90064V7.53665H59.782V7.90064C59.782 9.77664 57.556 10.9106 55.47 11.1206L56.156 12.3946C57.962 12.1566 59.992 11.1626 60.622 9.73465ZM66.25 14.5366V13.2346H61.434V11.6246H59.796V13.2346H54.98V14.5366H66.25ZM63.282 17.4346C63.282 18.0786 62.232 18.4566 60.608 18.4566C58.998 18.4566 57.962 18.0786 57.962 17.4346C57.962 16.8046 58.998 16.4126 60.608 16.4126C62.232 16.4126 63.282 16.8046 63.282 17.4346Z" fill="#222222"/>
<g clip-path="url(#clip1_7655_96730)">
<path fill-rule="evenodd" clip-rule="evenodd" d="M-5.37305 21.2531C-5.37305 21.7315 -5.27971 22.2053 -5.09838 22.6474C-4.91704 23.0894 -4.65125 23.4911 -4.31619 23.8294C-3.98112 24.1678 -3.58334 24.4362 -3.14556 24.6193C-2.70777 24.8024 -2.23856 24.8966 -1.76471 24.8966C-1.29085 24.8966 -0.821637 24.8024 -0.383853 24.6193C0.0539308 24.4362 0.451712 24.1678 0.786777 23.8294C1.12184 23.4911 1.38763 23.0894 1.56897 22.6474C1.7503 22.2053 1.84364 21.7315 1.84364 21.2531C1.84364 20.2867 1.46347 19.36 0.786777 18.6767C0.110082 17.9934 -0.807714 17.6095 -1.76471 17.6095C-2.7217 17.6095 -3.63949 17.9934 -4.31619 18.6767C-4.99288 19.36 -5.37305 20.2867 -5.37305 21.2531Z" fill="#222222"/>
<path fill-rule="evenodd" clip-rule="evenodd" d="M16.5503 21.2531C16.5503 21.7315 16.6436 22.2053 16.825 22.6474C17.0063 23.0894 17.2721 23.4911 17.6072 23.8294C17.9422 24.1678 18.34 24.4362 18.7778 24.6193C19.2156 24.8024 19.6848 24.8966 20.1586 24.8966C20.6325 24.8966 21.1017 24.8024 21.5395 24.6193C21.9773 24.4362 22.3751 24.1678 22.7101 23.8294C23.0452 23.4911 23.311 23.0894 23.4923 22.6474C23.6736 22.2053 23.767 21.7315 23.767 21.2531C23.767 20.2867 23.3868 19.36 22.7101 18.6767C22.0334 17.9934 21.1156 17.6095 20.1586 17.6095C19.2016 17.6095 18.2838 17.9934 17.6072 18.6767C16.9305 19.36 16.5503 20.2867 16.5503 21.2531Z" fill="#222222"/>
</g>
<path d="M14.826 -0.0172142C14.2103 -0.605817 13.3949 -0.934279 12.5471 -0.935257H-10.232L-10.4134 -0.930226C-11.2596 -0.881939 -12.0554 -0.50873 -12.6379 0.112937C-13.2204 0.734603 -13.5454 1.55766 -13.5464 2.41348V21.1022L-13.5394 21.1918C-13.5182 21.3202 -13.4526 21.4368 -13.3543 21.521C-13.2559 21.6052 -13.1312 21.6515 -13.0023 21.6516H24.3068L24.4005 21.6435C24.5058 21.6248 24.6033 21.5753 24.6809 21.501C24.7585 21.4268 24.8128 21.3311 24.837 21.226L24.9795 20.6021L26.3865 15.2127L26.4035 15.1111C26.4134 14.9732 26.3716 14.8364 26.2839 14.7267L24.1454 12.0642L23.1459 6.93145L23.108 6.71914C22.7393 4.90189 21.4907 3.69642 19.9471 3.69642H15.8634V2.41348L15.8585 2.23034C15.8111 1.37553 15.4417 0.571388 14.826 -0.0172142Z" fill="#FFCF02"/>
<path fill-rule="evenodd" clip-rule="evenodd" d="M-13.0024 21.1022H24.3067L24.773 19.0576H-13.0024V21.1022Z" fill="#404041"/>
<path fill-rule="evenodd" clip-rule="evenodd" d="M22.0777 7.13476L22.0747 7.11463C21.8495 5.70591 21.0155 4.79628 19.9482 4.79628H11.6423C11.0434 4.79628 10.5562 5.28833 10.5562 5.89307V11.7695H22.9806L22.0777 7.13476Z" fill="white"/>
<path fill-rule="evenodd" clip-rule="evenodd" d="M12.5471 -0.935257C13.3949 -0.934279 14.2103 -0.605817 14.826 -0.0172142C15.4417 0.571388 15.8111 1.37553 15.8585 2.23034L15.8634 2.41348V3.69642H19.9471C21.4907 3.69642 22.7393 4.90189 23.108 6.71914L23.1459 6.93145L24.1454 12.0642L26.2839 14.7267C26.3716 14.8364 26.4134 14.9732 26.4035 15.1111L26.3865 15.2127L24.9795 20.6021L24.837 21.226C24.8128 21.3311 24.7585 21.4268 24.6809 21.501C24.6033 21.5753 24.5058 21.6248 24.4005 21.6435L24.3068 21.6516H-13.0023C-13.1312 21.6515 -13.2559 21.6052 -13.3543 21.521C-13.4526 21.4368 -13.5182 21.3202 -13.5394 21.1918L-13.5464 21.1022V2.41348C-13.5454 1.55766 -13.2204 0.734603 -12.6379 0.112937C-12.0554 -0.50873 -11.2596 -0.881939 -10.4134 -0.930226L-10.232 -0.935257H12.5461H12.5471ZM16.0279 19.6069H-12.4582V20.5528H15.7937L16.0279 19.6069ZM24.0896 19.6069H17.1489L16.9157 20.5528H23.8664L23.9232 20.3385L24.0896 19.6069ZM12.5471 0.164553H6.74742C7.23869 0.70993 7.55758 1.41731 7.6064 2.19915L7.61338 2.41448V18.5081H9.46688V5.89202C9.46688 4.73485 10.3597 3.78296 11.4868 3.70246L11.6412 3.69642L11.6721 3.69843L11.704 3.69642H14.7753V2.41348C14.7747 1.81692 14.5398 1.24495 14.122 0.823125C13.7043 0.401296 13.1379 0.16408 12.5471 0.163547V0.164553ZM15.4399 12.8702H10.5571V13.4257H11.4609C11.6002 13.4212 11.7358 13.4709 11.8398 13.5646C11.9438 13.6583 12.0081 13.7887 12.0195 13.9289C12.0309 14.0692 11.9885 14.2085 11.901 14.318C11.8135 14.4276 11.6877 14.4989 11.5496 14.5174L11.4609 14.5245H10.5561V18.5091H16.2989L17.1639 15.0175L15.4399 12.8702ZM25.1708 15.5619H18.1504L17.421 18.5101H24.4005L25.1708 15.5619ZM4.29701 0.164553H-10.231C-11.4069 0.164553 -12.3715 1.08827 -12.4532 2.25449L-12.4592 2.41549V18.4749H6.5252V2.41348C6.52493 1.81675 6.29012 1.24452 5.87234 0.822475C5.45457 0.400429 4.88798 0.163074 4.29701 0.162541V0.164553ZM19.7309 16.4454C19.8729 16.4456 20.0091 16.5029 20.1093 16.6045C20.2096 16.7061 20.2658 16.8438 20.2655 16.9872C20.2652 17.1307 20.2085 17.2681 20.1079 17.3694C20.0073 17.4706 19.8709 17.5273 19.7289 17.5271C19.5869 17.5268 19.4509 17.4696 19.3508 17.3681C19.2506 17.2666 19.1945 17.129 19.1947 16.9857C19.195 16.8424 19.2516 16.7051 19.3522 16.6039C19.4527 16.5028 19.5889 16.4461 19.7309 16.4464V16.4454ZM23.1738 16.4454C23.3158 16.4456 23.452 16.5029 23.5522 16.6045C23.6525 16.7061 23.7087 16.8438 23.7084 16.9872C23.7081 17.1307 23.6515 17.2681 23.5508 17.3694C23.4502 17.4706 23.3139 17.5273 23.1718 17.5271C23.0299 17.5268 22.8939 17.4696 22.7937 17.3681C22.6935 17.2666 22.6374 17.129 22.6377 16.9857C22.6379 16.8424 22.6946 16.7051 22.7951 16.6039C22.8956 16.5028 23.0319 16.4461 23.1738 16.4464V16.4454ZM23.391 12.8702H16.841L18.1195 14.4631H24.6695L23.391 12.8702ZM19.9471 4.79623H14.1146C14.5251 5.28526 14.8301 5.91717 14.9895 6.65273L15.0423 6.93246L15.984 11.7724H22.9795L22.0766 7.13471L22.0736 7.1166C21.8494 5.70788 21.0144 4.79623 19.9471 4.79623ZM11.6412 4.79019C11.3736 4.79317 11.1162 4.89486 10.9176 5.07611C10.719 5.25736 10.5929 5.50567 10.563 5.77429L10.5561 5.89302V11.7714H14.8759L13.9731 7.13471L13.9701 7.1166C13.7558 5.77429 12.9895 4.88478 11.995 4.80227L11.8435 4.79623H11.704C11.6821 4.79623 11.6622 4.79221 11.6412 4.79019ZM20.824 7.39331L20.8489 7.47884L21.1977 9.18642C21.2294 9.32239 21.2085 9.46545 21.1393 9.5864C21.0701 9.70735 20.9578 9.79707 20.8253 9.83726C20.6928 9.87745 20.5501 9.86507 20.4264 9.80264C20.3026 9.74022 20.2071 9.63247 20.1594 9.50137L20.1315 9.40779L19.7827 7.70021C19.7579 7.56601 19.7833 7.42729 19.8541 7.31098C19.9249 7.19467 20.036 7.10908 20.1658 7.07083C20.2956 7.03258 20.4348 7.0444 20.5565 7.10399C20.6781 7.16359 20.7735 7.2667 20.824 7.39331ZM17.5595 7.39331L17.5844 7.47884L17.9332 9.18642C17.9582 9.32005 17.9334 9.45831 17.8634 9.57455C17.7935 9.69078 17.6834 9.77675 17.5544 9.81587C17.4254 9.855 17.2866 9.84452 17.1648 9.78644C17.043 9.72836 16.9469 9.62681 16.8948 9.50137L16.8669 9.40779L16.5191 7.70021C16.4893 7.56432 16.5117 7.42204 16.5819 7.30223C16.652 7.18241 16.7647 7.09403 16.897 7.05499C17.0294 7.01596 17.1714 7.02919 17.2944 7.09202C17.4175 7.15484 17.5122 7.26255 17.5595 7.39331Z" fill="#222222"/>
<g clip-path="url(#clip2_7655_96730)">
<path fill-rule="evenodd" clip-rule="evenodd" d="M11.4077 21.2531C11.4077 21.7315 11.501 22.2053 11.6824 22.6474C11.8637 23.0894 12.1295 23.4911 12.4646 23.8294C12.7996 24.1678 13.1974 24.4362 13.6352 24.6193C14.073 24.8024 14.5422 24.8966 15.0161 24.8966C15.4899 24.8966 15.9591 24.8024 16.3969 24.6193C16.8347 24.4362 17.2325 24.1678 17.5675 23.8294C17.9026 23.4911 18.1684 23.0894 18.3497 22.6474C18.5311 22.2053 18.6244 21.7315 18.6244 21.2531C18.6244 20.2867 18.2442 19.36 17.5675 18.6767C16.8908 17.9934 15.973 17.6095 15.0161 17.6095C14.0591 17.6095 13.1413 17.9934 12.4646 18.6767C11.7879 19.36 11.4077 20.2867 11.4077 21.2531Z" fill="#222222"/>
<path fill-rule="evenodd" clip-rule="evenodd" d="M13.6719 21.2531C13.6717 21.4312 13.7064 21.6076 13.7737 21.7723C13.8411 21.9369 13.94 22.0865 14.0646 22.2125C14.1893 22.3386 14.3373 22.4386 14.5002 22.5069C14.6631 22.5752 14.8378 22.6104 15.0142 22.6105C15.1906 22.6107 15.3653 22.5757 15.5283 22.5077C15.6913 22.4396 15.8395 22.3398 15.9643 22.2139C16.0891 22.0881 16.1882 21.9386 16.2558 21.7741C16.3234 21.6096 16.3583 21.4333 16.3585 21.2551C16.3588 20.8954 16.2177 20.5502 15.9661 20.2956C15.7144 20.0409 15.3729 19.8976 15.0167 19.8972C14.6604 19.8968 14.3186 20.0393 14.0664 20.2934C13.8142 20.5475 13.6723 20.8924 13.6719 21.2521" fill="#404041"/>
</g>
</g>
<rect x="0.5" y="0.5" width="73.67" height="27" rx="13.5" stroke="#222222"/>
<defs>
<clipPath id="clip0_7655_96730">
<rect width="74.6667" height="28" rx="14" fill="white"/>
</clipPath>
<clipPath id="clip1_7655_96730">
<rect width="37.8672" height="7.04361" fill="white" transform="translate(-13.0034 18.5555)"/>
</clipPath>
<clipPath id="clip2_7655_96730">
<rect width="7.21668" height="7.28712" fill="white" transform="translate(11.4077 17.6095)"/>
</clipPath>
</defs>
</svg>
