<svg width="86" height="28" viewBox="0 0 86 28" fill="none" xmlns="http://www.w3.org/2000/svg">
<g clip-path="url(#clip0_11017_98372)">
<rect width="86" height="28" rx="14" fill="#F5F5F5"/>
<g clip-path="url(#clip1_11017_98372)">
<path fill-rule="evenodd" clip-rule="evenodd" d="M-5.37256 21.2531C-5.37256 21.7315 -5.27923 22.2053 -5.0979 22.6474C-4.91657 23.0894 -4.65079 23.4911 -4.31574 23.8294C-3.98069 24.1678 -3.58292 24.4362 -3.14516 24.6193C-2.70739 24.8024 -2.23819 24.8966 -1.76436 24.8966C-1.29052 24.8966 -0.821324 24.8024 -0.383557 24.6193C0.0542101 24.4362 0.451975 24.1678 0.787028 23.8294C1.12208 23.4911 1.38786 23.0894 1.56919 22.6474C1.75052 22.2053 1.84385 21.7315 1.84385 21.2531C1.84385 20.2867 1.4637 19.36 0.787028 18.6767C0.110359 17.9934 -0.807402 17.6095 -1.76436 17.6095C-2.72131 17.6095 -3.63907 17.9934 -4.31574 18.6767C-4.99241 19.36 -5.37256 20.2867 -5.37256 21.2531" fill="#222222"/>
<path fill-rule="evenodd" clip-rule="evenodd" d="M16.5493 21.2531C16.5493 21.7315 16.6426 22.2053 16.824 22.6474C17.0053 23.0894 17.2711 23.4911 17.6061 23.8294C17.9412 24.1678 18.339 24.4362 18.7767 24.6193C19.2145 24.8024 19.6837 24.8966 20.1575 24.8966C20.6314 24.8966 21.1006 24.8024 21.5383 24.6193C21.9761 24.4362 22.3739 24.1678 22.7089 23.8294C23.044 23.4911 23.3097 23.0894 23.4911 22.6474C23.6724 22.2053 23.7657 21.7315 23.7657 21.2531C23.7657 20.2867 23.3856 19.36 22.7089 18.6767C22.0322 17.9934 21.1145 17.6095 20.1575 17.6095C19.2006 17.6095 18.2828 17.9934 17.6061 18.6767C16.9295 19.36 16.5493 20.2867 16.5493 21.2531" fill="#222222"/>
</g>
<path d="M14.8254 -0.0172601C14.2097 -0.605863 13.3944 -0.934325 12.5466 -0.935303H-10.2317L-10.413 -0.930271C-11.2592 -0.881985 -12.055 -0.508776 -12.6375 0.112891C-13.22 0.734557 -13.545 1.55762 -13.5459 2.41343V21.1021L-13.5389 21.1917C-13.5177 21.3201 -13.4521 21.4368 -13.3538 21.521C-13.2554 21.6052 -13.1307 21.6514 -13.0018 21.6515H24.3058L24.3995 21.6435C24.5048 21.6248 24.6023 21.5752 24.6799 21.501C24.7575 21.4267 24.8118 21.3311 24.836 21.2259L24.9785 20.6021L26.3855 15.2127L26.4024 15.1111C26.4124 14.9732 26.3705 14.8364 26.2828 14.7267L24.1444 12.0642L23.145 6.93141L23.1071 6.71909C22.7384 4.90184 21.4898 3.69638 19.9463 3.69638H15.8628V2.41343L15.8578 2.2303C15.8105 1.37549 15.4411 0.571342 14.8254 -0.0172601Z" fill="#A6DD27"/>
<path fill-rule="evenodd" clip-rule="evenodd" d="M-13.002 21.1022H24.3057L24.7721 19.0576H-13.002V21.1022Z" fill="#404041"/>
<path fill-rule="evenodd" clip-rule="evenodd" d="M22.0768 7.13474L22.0738 7.11462C21.8486 5.7059 21.0146 4.79626 19.9474 4.79626H11.6418C11.0429 4.79626 10.5557 5.28831 10.5557 5.89306V11.7694H22.9796L22.0768 7.13474V7.13474Z" fill="white"/>
<path fill-rule="evenodd" clip-rule="evenodd" d="M12.5466 -0.935303C13.3944 -0.934325 14.2097 -0.605863 14.8254 -0.0172601C15.4411 0.571342 15.8105 1.37549 15.8578 2.2303L15.8628 2.41343V3.69638H19.9463C21.4898 3.69638 22.7384 4.90184 23.1071 6.71909L23.145 6.93141L24.1444 12.0642L26.2828 14.7267C26.3705 14.8364 26.4124 14.9732 26.4024 15.1111L26.3855 15.2127L24.9785 20.6021L24.836 21.2259C24.8118 21.3311 24.7575 21.4267 24.6799 21.501C24.6023 21.5752 24.5048 21.6248 24.3995 21.6435L24.3058 21.6515H-13.0018C-13.1307 21.6514 -13.2554 21.6051 -13.3538 21.521C-13.4521 21.4368 -13.5177 21.3201 -13.5389 21.1917L-13.5459 21.1021V2.41343C-13.545 1.55761 -13.22 0.734557 -12.6375 0.112891C-12.055 -0.508776 -11.2592 -0.881985 -10.413 -0.930271L-10.2317 -0.935303H12.5456H12.5466ZM16.0272 19.6069H-12.4578V20.5527H15.793L16.0272 19.6069ZM24.0886 19.6069H17.1482L16.9151 20.5527H23.8654L23.9222 20.3384L24.0886 19.6069ZM12.5466 0.164507H6.74712C7.23838 0.709884 7.55725 1.41726 7.60608 2.1991L7.61305 2.41444V18.5081H9.46648V5.89197C9.46648 4.73481 10.3593 3.78291 11.4863 3.70241L11.6408 3.69638L11.6717 3.69839L11.7035 3.69638H14.7747V2.41343C14.7741 1.81688 14.5392 1.24491 14.1215 0.823079C13.7037 0.401251 13.1373 0.164034 12.5466 0.163501V0.164507ZM15.4393 12.8702H10.5566V13.4256H11.4604C11.5997 13.4211 11.7353 13.4709 11.8393 13.5645C11.9433 13.6582 12.0076 13.7887 12.019 13.9289C12.0304 14.0691 11.988 14.2084 11.9005 14.318C11.813 14.4275 11.6872 14.4989 11.5491 14.5174L11.4604 14.5244H10.5556V18.5091H16.2982L17.1632 15.0175L15.4393 12.8702V12.8702ZM25.1698 15.5618H18.1497L17.4203 18.5101H24.3995L25.1698 15.5618ZM4.29682 0.164507H-10.2307C-11.4065 0.164507 -12.3711 1.08823 -12.4528 2.25445L-12.4588 2.41544V18.4749H6.52491V2.41343C6.52465 1.8167 6.28985 1.24447 5.87209 0.822429C5.45432 0.400383 4.88775 0.163028 4.29682 0.162495V0.164507ZM19.7301 16.4453C19.8721 16.4456 20.0083 16.5028 20.1085 16.6044C20.2088 16.7061 20.2649 16.8437 20.2647 16.9872C20.2644 17.1306 20.2077 17.2681 20.1071 17.3693C20.0065 17.4706 19.8701 17.5273 19.7281 17.527C19.5862 17.5267 19.4502 17.4696 19.35 17.368C19.2498 17.2665 19.1937 17.129 19.194 16.9857C19.1942 16.8424 19.2509 16.705 19.3514 16.6039C19.4519 16.5027 19.5882 16.4461 19.7301 16.4463V16.4453ZM23.1729 16.4453C23.3149 16.4456 23.451 16.5028 23.5513 16.6044C23.6516 16.7061 23.7077 16.8437 23.7075 16.9872C23.7072 17.1306 23.6505 17.2681 23.5499 17.3693C23.4493 17.4706 23.3129 17.5273 23.1709 17.527C23.029 17.5267 22.893 17.4696 22.7928 17.368C22.6926 17.2665 22.6365 17.129 22.6368 16.9857C22.637 16.8424 22.6937 16.705 22.7942 16.6039C22.8947 16.5027 23.0309 16.4461 23.1729 16.4463V16.4453ZM23.3901 12.8702H16.8403L18.1188 14.463H24.6686L23.3901 12.8702ZM19.9463 4.79619H14.114C14.5245 5.28521 14.8295 5.91713 14.9889 6.65268L15.0417 6.93241L15.9834 11.7724H22.9786L22.0758 7.13466L22.0728 7.11655C21.8486 5.70783 21.0135 4.79619 19.9463 4.79619V4.79619ZM11.6408 4.79015C11.3731 4.79312 11.1158 4.89481 10.9172 5.07606C10.7186 5.25732 10.5925 5.50563 10.5626 5.77424L10.5556 5.89298V11.7714H14.8753L13.9725 7.13466L13.9695 7.11655C13.7553 5.77424 12.989 4.88473 11.9945 4.80222L11.8431 4.79619H11.7035C11.6816 4.79619 11.6617 4.79216 11.6408 4.79015V4.79015ZM20.8232 7.39327L20.8481 7.47879L21.1969 9.18637C21.2286 9.32234 21.2077 9.4654 21.1385 9.58635C21.0693 9.7073 20.957 9.79703 20.8245 9.83721C20.692 9.8774 20.5493 9.86502 20.4256 9.8026C20.3018 9.74018 20.2063 9.63242 20.1586 9.50132L20.1307 9.40774L19.7819 7.70017C19.7571 7.56596 19.7825 7.42724 19.8533 7.31093C19.9241 7.19462 20.0352 7.10903 20.165 7.07078C20.2948 7.03253 20.434 7.04435 20.5556 7.10395C20.6773 7.16354 20.7726 7.26665 20.8232 7.39327ZM17.5588 7.39327L17.5837 7.47879L17.9325 9.18637C17.9575 9.32 17.9326 9.45827 17.8627 9.5745C17.7928 9.69073 17.6827 9.7767 17.5537 9.81583C17.4247 9.85495 17.2859 9.84447 17.1641 9.78639C17.0424 9.72832 16.9462 9.62677 16.8941 9.50132L16.8662 9.40774L16.5185 7.70017C16.4886 7.56427 16.511 7.422 16.5812 7.30218C16.6514 7.18236 16.764 7.09398 16.8963 7.05494C17.0287 7.01591 17.1707 7.02915 17.2937 7.09197C17.4168 7.1548 17.5115 7.26251 17.5588 7.39327V7.39327Z" fill="#222222"/>
<g clip-path="url(#clip2_11017_98372)">
<path fill-rule="evenodd" clip-rule="evenodd" d="M11.4072 21.2531C11.4072 21.7315 11.5006 22.2053 11.6819 22.6474C11.8632 23.0894 12.129 23.4911 12.464 23.8294C12.7991 24.1678 13.1969 24.4362 13.6346 24.6193C14.0724 24.8024 14.5416 24.8966 15.0154 24.8966C15.4893 24.8966 15.9585 24.8024 16.3962 24.6193C16.834 24.4362 17.2318 24.1678 17.5668 23.8294C17.9019 23.4911 18.1676 23.0894 18.349 22.6474C18.5303 22.2053 18.6236 21.7315 18.6236 21.2531C18.6236 20.2867 18.2435 19.36 17.5668 18.6767C16.8901 17.9934 15.9724 17.6095 15.0154 17.6095C14.0585 17.6095 13.1407 17.9934 12.464 18.6767C11.7874 19.36 11.4072 20.2867 11.4072 21.2531" fill="#222222"/>
<path fill-rule="evenodd" clip-rule="evenodd" d="M13.6714 21.2531C13.6713 21.4312 13.7059 21.6076 13.7733 21.7723C13.8406 21.9369 13.9395 22.0865 14.0641 22.2125C14.1887 22.3386 14.3367 22.4386 14.4997 22.5069C14.6626 22.5752 14.8372 22.6104 15.0136 22.6105C15.19 22.6107 15.3647 22.5757 15.5277 22.5077C15.6908 22.4396 15.8389 22.3398 15.9637 22.2139C16.0886 22.0881 16.1876 21.9386 16.2552 21.7741C16.3229 21.6096 16.3577 21.4333 16.3579 21.2551C16.3583 20.8954 16.2171 20.5502 15.9655 20.2956C15.7139 20.0409 15.3724 19.8976 15.0161 19.8972C14.6599 19.8968 14.3181 20.0393 14.0659 20.2934C13.8137 20.5475 13.6718 20.8924 13.6714 21.2521" fill="#404041"/>
</g>
<path d="M40.6799 12.6817V13.755H31.2886V12.6817H40.6799ZM39.2566 8.79667H33.8435V9.92834H39.6066V11.0017H32.4902V5.48334H39.5016V6.55667H33.8435V7.72334H39.2566V8.79667Z" fill="#777777"/>
<path d="M45.3695 11.2817L45.5095 12.3317C44.7046 12.53 43.5146 12.635 41.963 12.635H41.123V8.48169H43.4446V6.84835H41.123V5.75169H44.7979V9.56669H42.4997V11.515C43.6313 11.515 44.5879 11.4334 45.3695 11.2817ZM47.6211 14.5834H46.3495V9.55502H45.2179V8.45835H46.3495V4.86502H47.6211V14.5834ZM49.6277 15.0617H48.3211V4.66669H49.6277V15.0617Z" fill="#777777"/>
<path d="M51.2961 11.7834C50.8177 11.1067 50.5728 10.2084 50.5728 9.10002C50.5728 7.99169 50.8177 7.09335 51.2961 6.40502C51.7744 5.71669 52.4277 5.37835 53.256 5.37835C54.0843 5.37835 54.7609 5.71669 55.2392 6.40502C55.7176 7.09335 55.9625 7.99169 55.9625 9.10002C55.9625 10.2084 55.7176 11.095 55.2392 11.7717C54.7609 12.4484 54.1076 12.7984 53.256 12.7984C52.4043 12.7984 51.7744 12.46 51.2961 11.7834ZM54.6559 9.10002C54.6559 8.29502 54.5276 7.65335 54.2709 7.18669C54.0143 6.72002 53.676 6.47502 53.2677 6.47502C52.8593 6.47502 52.5443 6.70835 52.2994 7.18669C52.0544 7.66502 51.926 8.29502 51.926 9.10002C51.926 9.90502 52.0544 10.535 52.2994 11.0017C52.556 11.4684 52.8827 11.7017 53.2677 11.7017C53.6526 11.7017 54.0143 11.4684 54.2709 11.0017C54.5276 10.535 54.6559 9.90502 54.6559 9.10002ZM58.8791 15.0617H57.5258V4.66669H58.8791V15.0617Z" fill="#777777"/>
<path d="M65.7506 12.2034C64.8056 12.4367 63.3124 12.5534 61.2474 12.5534H60.2441V5.62335H64.9106V6.72002H61.5974V11.445C63.324 11.445 64.6423 11.34 65.5523 11.1184L65.7506 12.2034ZM68.3638 15.0617H67.0105V9.35669H64.5256V8.20169H67.0105V4.66669H68.3638V15.0617Z" fill="#777777"/>
<path d="M78.6652 13.7084H69.2739V12.6234H78.6652V13.7084ZM78.4669 9.45003L77.7786 10.5117C77.0086 10.3367 76.2503 9.9867 75.5037 9.47337C74.7571 8.96003 74.2437 8.3767 73.9638 7.73503C73.7071 8.40003 73.1938 8.99503 72.4355 9.52003C71.6772 10.045 70.9072 10.395 70.1372 10.5584L69.4956 9.45003C70.0906 9.36837 70.6622 9.17003 71.2222 8.8667C71.7822 8.56337 72.2721 8.15503 72.6688 7.63003C73.0655 7.10503 73.2638 6.5567 73.2638 5.97337V5.28503H74.6871V5.97337C74.6871 6.32337 74.7687 6.67337 74.9204 7.00003C75.0837 7.33837 75.2937 7.6417 75.562 7.91003C75.8303 8.17837 76.122 8.4117 76.4487 8.63337C76.7753 8.85503 77.1136 9.01837 77.4636 9.15837C77.8019 9.29837 78.1403 9.3917 78.4669 9.45003Z" fill="#777777"/>
<path d="M51.2612 20.9417H45.0664V20.2183H51.2612V20.9417ZM48.1346 18.83L47.633 19.4717C47.4813 19.4017 47.3297 19.3083 47.1663 19.1683C47.0147 19.0283 46.898 18.8883 46.8163 18.7367C46.723 18.935 46.5713 19.1333 46.3614 19.355C46.1397 19.565 45.918 19.7167 45.7081 19.81L45.1714 19.1683C45.5447 19.0283 45.848 18.8067 46.058 18.5033C46.2797 18.2 46.3847 17.8733 46.3847 17.5467V17.2083H47.2597V17.5467C47.2597 18.1883 47.5513 18.62 48.1346 18.8417V18.83ZM45.7897 21.4667H50.4562V23.8H49.5579V22.1783H45.7897V21.4667ZM51.1795 19.075L50.7012 19.7283C50.5262 19.67 50.3279 19.5417 50.1062 19.3433C49.8846 19.145 49.7212 18.9467 49.6162 18.76C49.5229 18.97 49.3712 19.1917 49.1496 19.4017C48.9396 19.6117 48.7179 19.7633 48.4963 19.8567L47.9596 19.2383C48.3213 19.11 48.6129 18.8767 48.8346 18.55C49.0563 18.2233 49.1729 17.885 49.1729 17.535V17.1617H50.0479V17.535C50.0479 17.8733 50.1529 18.1883 50.3512 18.48C50.5495 18.7717 50.8295 18.97 51.1795 19.075Z" fill="#777777"/>
<path d="M54.6092 22.0033H51.8677V17.6283H52.766V19.2033H53.7226V17.6167H54.6209V22.0033H54.6092ZM53.7109 21.2917V19.9033H52.7543V21.2917H53.7109ZM57.5375 23.7767H56.6742V20.3233H56.1142V23.4617H55.2625V17.045H56.1142V19.6117H56.6742V16.9283H57.5375V23.7883V23.7767Z" fill="#777777"/>
<path d="M64.5605 20.9067H58.3657V20.195H61.014V19.3084H61.9123V20.195H64.5605V20.9067ZM61.4689 18.27C61.3056 18.6434 60.9906 18.97 60.5123 19.2267C60.0457 19.495 59.544 19.6584 59.0074 19.7284L58.634 19.0284C59.264 18.97 59.824 18.7834 60.2907 18.4567C60.769 18.1417 61.0023 17.7334 61.0023 17.255V17.0567H61.9356V17.255C61.9356 17.5817 62.0639 17.8734 62.3322 18.1534C62.6006 18.4334 62.9039 18.6434 63.2655 18.7834C63.6272 18.935 63.9772 19.0167 64.3155 19.0284L63.9305 19.74C63.4289 19.67 62.9272 19.495 62.4489 19.2267C61.9589 18.9584 61.6323 18.6434 61.4689 18.27ZM63.2189 21.5717C63.6388 21.805 63.8488 22.1084 63.8488 22.505C63.8488 22.9017 63.6388 23.2167 63.2189 23.4384C62.7989 23.66 62.2156 23.7767 61.4573 23.7767C60.699 23.7767 60.1157 23.66 59.6957 23.4384C59.2757 23.2167 59.0657 22.9017 59.0657 22.505C59.0657 22.1084 59.2757 21.7934 59.6957 21.5717C60.1157 21.3384 60.699 21.2334 61.4456 21.2334C62.1922 21.2334 62.7872 21.35 63.2072 21.5717H63.2189ZM62.5306 22.925C62.7989 22.82 62.9272 22.6917 62.9272 22.5167C62.9272 22.3417 62.7989 22.2017 62.5306 22.1084C62.2622 22.015 61.9123 21.9567 61.4573 21.9567C61.0023 21.9567 60.6523 22.0034 60.3956 22.1084C60.139 22.2134 59.999 22.3417 59.999 22.5167C59.999 22.6917 60.1273 22.8317 60.3956 22.925C60.664 23.0184 61.014 23.0767 61.4573 23.0767C61.9006 23.0767 62.2622 23.03 62.5306 22.925Z" fill="#777777"/>
</g>
<defs>
<clipPath id="clip0_11017_98372">
<rect width="86" height="28" rx="14" fill="white"/>
</clipPath>
<clipPath id="clip1_11017_98372">
<rect width="37.8657" height="7.04361" fill="white" transform="translate(-13.0029 18.5554)"/>
</clipPath>
<clipPath id="clip2_11017_98372">
<rect width="7.21641" height="7.28712" fill="white" transform="translate(11.4072 17.6095)"/>
</clipPath>
</defs>
</svg>
