<svg width="86" height="28" viewBox="0 0 86 28" fill="none" xmlns="http://www.w3.org/2000/svg">
<g clip-path="url(#clip0_4_892)">
<rect width="86" height="28" rx="14" fill="#A6DD27"/>
<g clip-path="url(#clip1_4_892)">
<path fill-rule="evenodd" clip-rule="evenodd" d="M-5.35229 21.2531C-5.35229 21.7315 -5.25932 22.2053 -5.07869 22.6474C-4.89805 23.0894 -4.63329 23.4911 -4.29952 23.8294C-3.96574 24.1678 -3.5695 24.4362 -3.13341 24.6193C-2.69731 24.8024 -2.22991 24.8966 -1.75789 24.8966C-1.28586 24.8966 -0.818458 24.8024 -0.382364 24.6193C0.0537297 24.4362 0.449975 24.1678 0.783746 23.8294C1.11752 23.4911 1.38228 23.0894 1.56292 22.6474C1.74355 22.2053 1.83652 21.7315 1.83652 21.2531C1.83652 20.2867 1.45783 19.36 0.783746 18.6767C0.109664 17.9934 -0.804588 17.6095 -1.75789 17.6095C-2.71118 17.6095 -3.62543 17.9934 -4.29952 18.6767C-4.9736 19.36 -5.35229 20.2867 -5.35229 21.2531" fill="#222222"/>
<path fill-rule="evenodd" clip-rule="evenodd" d="M16.4861 21.2531C16.4861 21.7315 16.5791 22.2053 16.7597 22.6474C16.9403 23.0894 17.2051 23.4911 17.5389 23.8294C17.8726 24.1678 18.2689 24.4362 18.705 24.6193C19.1411 24.8024 19.6085 24.8966 20.0805 24.8966C20.5525 24.8966 21.0199 24.8024 21.456 24.6193C21.8921 24.4362 22.2884 24.1678 22.6221 23.8294C22.9559 23.4911 23.2207 23.0894 23.4013 22.6474C23.5819 22.2053 23.6749 21.7315 23.6749 21.2531C23.6749 20.2867 23.2962 19.36 22.6221 18.6767C21.948 17.9934 21.0338 17.6095 20.0805 17.6095C19.1272 17.6095 18.2129 17.9934 17.5389 18.6767C16.8648 19.36 16.4861 20.2867 16.4861 21.2531" fill="#222222"/>
</g>
<path d="M14.7685 -0.0172601C14.1552 -0.605863 13.3429 -0.934325 12.4983 -0.935303H-10.1928L-10.3735 -0.930271C-11.2164 -0.881985 -12.0092 -0.508776 -12.5894 0.112891C-13.1697 0.734557 -13.4934 1.55762 -13.4944 2.41343V21.1021L-13.4874 21.1917C-13.4663 21.3201 -13.401 21.4368 -13.303 21.521C-13.205 21.6052 -13.0808 21.6514 -12.9524 21.6515H24.2127L24.306 21.6435C24.4109 21.6248 24.508 21.5752 24.5853 21.501C24.6626 21.4267 24.7167 21.3311 24.7408 21.2259L24.8827 20.6021L26.2843 15.2127L26.3012 15.1111C26.3111 14.9732 26.2695 14.8364 26.1821 14.7267L24.0519 12.0642L23.0562 6.93141L23.0185 6.71909C22.6512 4.90184 21.4074 3.69638 19.8698 3.69638H15.8019V2.41343L15.7969 2.2303C15.7498 1.37549 15.3818 0.571342 14.7685 -0.0172601Z" fill="#A6DD27"/>
<path fill-rule="evenodd" clip-rule="evenodd" d="M-12.9524 21.1022H24.2127L24.6772 19.0576H-12.9524V21.1022Z" fill="#404041"/>
<path fill-rule="evenodd" clip-rule="evenodd" d="M21.9922 7.13474L21.9893 7.11462C21.7649 5.7059 20.9341 4.79626 19.8709 4.79626H11.5971C11.0005 4.79626 10.5151 5.28831 10.5151 5.89306V11.7694H22.8916L21.9922 7.13474V7.13474Z" fill="white"/>
<path fill-rule="evenodd" clip-rule="evenodd" d="M12.4983 -0.935303C13.3429 -0.934325 14.1552 -0.605863 14.7685 -0.0172601C15.3818 0.571342 15.7498 1.37549 15.7969 2.2303L15.8019 2.41343V3.69638H19.8698C21.4074 3.69638 22.6512 4.90184 23.0185 6.71909L23.0562 6.93141L24.0519 12.0642L26.1821 14.7267C26.2695 14.8364 26.3111 14.9732 26.3012 15.1111L26.2843 15.2127L24.8827 20.6021L24.7408 21.2259C24.7167 21.3311 24.6626 21.4267 24.5853 21.501C24.508 21.5752 24.4109 21.6248 24.306 21.6435L24.2127 21.6515H-12.9524C-13.0808 21.6514 -13.205 21.6051 -13.303 21.521C-13.401 21.4368 -13.4663 21.3201 -13.4874 21.1917L-13.4944 21.1021V2.41343C-13.4934 1.55761 -13.1697 0.734557 -12.5894 0.112891C-12.0092 -0.508776 -11.2164 -0.881985 -10.3735 -0.930271L-10.1928 -0.935303H12.4973H12.4983ZM15.9657 19.6069H-12.4104V20.5527H15.7324L15.9657 19.6069ZM23.9963 19.6069H17.0824L16.8501 20.5527H23.7739L23.8305 20.3384L23.9963 19.6069ZM12.4983 0.164507H6.72107C7.21045 0.709884 7.5281 1.41726 7.57674 2.1991L7.58368 2.41444V18.5081H9.43003V5.89197C9.43003 4.73481 10.3194 3.78291 11.4421 3.70241L11.596 3.69638L11.6268 3.69839L11.6585 3.69638H14.7179V2.41343C14.7174 1.81688 14.4834 1.24491 14.0672 0.823079C13.6511 0.401251 13.0868 0.164034 12.4983 0.163501V0.164507ZM15.38 12.8702H10.516V13.4256H11.4163C11.5551 13.4211 11.6902 13.4709 11.7938 13.5645C11.8974 13.6582 11.9615 13.7887 11.9728 13.9289C11.9842 14.0691 11.9419 14.2084 11.8548 14.318C11.7676 14.4275 11.6423 14.4989 11.5047 14.5174L11.4163 14.5244H10.515V18.5091H16.2357L17.0973 15.0175L15.38 12.8702V12.8702ZM25.0733 15.5618H18.08L17.3534 18.5101H24.306L25.0733 15.5618ZM4.28012 0.164507H-10.1918C-11.3632 0.164507 -12.324 1.08823 -12.4054 2.25445L-12.4114 2.41544V18.4749H6.4997V2.41343C6.49944 1.8167 6.26554 1.24447 5.84937 0.822429C5.43321 0.400383 4.8688 0.163028 4.28012 0.162495V0.164507ZM19.6544 16.4453C19.7959 16.4456 19.9315 16.5028 20.0314 16.6044C20.1313 16.7061 20.1872 16.8437 20.1869 16.9872C20.1867 17.1306 20.1302 17.2681 20.03 17.3693C19.9297 17.4706 19.7939 17.5273 19.6524 17.527C19.511 17.5267 19.3755 17.4696 19.2758 17.368C19.176 17.2665 19.1201 17.129 19.1203 16.9857C19.1206 16.8424 19.177 16.705 19.2772 16.6039C19.3773 16.5027 19.513 16.4461 19.6544 16.4463V16.4453ZM23.084 16.4453C23.2255 16.4456 23.3611 16.5028 23.461 16.6044C23.5609 16.7061 23.6168 16.8437 23.6166 16.9872C23.6163 17.1306 23.5598 17.2681 23.4596 17.3693C23.3594 17.4706 23.2235 17.5273 23.082 17.527C22.9407 17.5267 22.8052 17.4696 22.7054 17.368C22.6056 17.2665 22.5497 17.129 22.55 16.9857C22.5502 16.8424 22.6066 16.705 22.7068 16.6039C22.807 16.5027 22.9426 16.4461 23.084 16.4463V16.4453ZM23.3004 12.8702H16.7757L18.0493 14.463H24.574L23.3004 12.8702ZM19.8698 4.79619H14.0598C14.4688 5.28521 14.7725 5.91713 14.9313 6.65268L14.9839 6.93241L15.922 11.7724H22.8904L21.9911 7.13466L21.9881 7.11655C21.7648 5.70783 20.9329 4.79619 19.8698 4.79619V4.79619ZM11.596 4.79015C11.3294 4.79312 11.073 4.89481 10.8752 5.07606C10.6773 5.25732 10.5517 5.50563 10.5219 5.77424L10.515 5.89298V11.7714H14.8182L13.9188 7.13466L13.9158 7.11655C13.7024 5.77424 12.9391 4.88473 11.9484 4.80222L11.7975 4.79619H11.6585C11.6367 4.79619 11.6168 4.79216 11.596 4.79015V4.79015ZM20.7433 7.39327L20.7681 7.47879L21.1156 9.18637C21.1471 9.32234 21.1263 9.4654 21.0574 9.58635C20.9885 9.7073 20.8766 9.79703 20.7446 9.83721C20.6126 9.8774 20.4705 9.86502 20.3472 9.8026C20.2239 9.74018 20.1288 9.63242 20.0812 9.50132L20.0534 9.40774L19.706 7.70017C19.6813 7.56596 19.7067 7.42724 19.7772 7.31093C19.8477 7.19462 19.9584 7.10903 20.0876 7.07078C20.2169 7.03253 20.3556 7.04435 20.4768 7.10395C20.598 7.16354 20.693 7.26665 20.7433 7.39327ZM17.4914 7.39327L17.5162 7.47879L17.8636 9.18637C17.8886 9.32 17.8638 9.45827 17.7942 9.5745C17.7245 9.69073 17.6148 9.7767 17.4863 9.81583C17.3578 9.85495 17.2196 9.84447 17.0983 9.78639C16.9769 9.72832 16.8811 9.62677 16.8293 9.50132L16.8015 9.40774L16.4551 7.70017C16.4253 7.56427 16.4476 7.422 16.5175 7.30218C16.5874 7.18236 16.6997 7.09398 16.8315 7.05494C16.9633 7.01591 17.1048 7.02915 17.2274 7.09197C17.3499 7.1548 17.4443 7.26251 17.4914 7.39327V7.39327Z" fill="#222222"/>
<g clip-path="url(#clip2_4_892)">
<path fill-rule="evenodd" clip-rule="evenodd" d="M11.3638 21.2531C11.3638 21.7315 11.4567 22.2053 11.6374 22.6474C11.818 23.0894 12.0828 23.4911 12.4165 23.8294C12.7503 24.1678 13.1466 24.4362 13.5827 24.6193C14.0188 24.8024 14.4862 24.8966 14.9582 24.8966C15.4302 24.8966 15.8976 24.8024 16.3337 24.6193C16.7698 24.4362 17.166 24.1678 17.4998 23.8294C17.8336 23.4911 18.0983 23.0894 18.279 22.6474C18.4596 22.2053 18.5526 21.7315 18.5526 21.2531C18.5526 20.2867 18.1739 19.36 17.4998 18.6767C16.8257 17.9934 15.9115 17.6095 14.9582 17.6095C14.0049 17.6095 13.0906 17.9934 12.4165 18.6767C11.7425 19.36 11.3638 20.2867 11.3638 21.2531" fill="#222222"/>
<path fill-rule="evenodd" clip-rule="evenodd" d="M13.6191 21.2531C13.619 21.4312 13.6535 21.6076 13.7206 21.7723C13.7877 21.9369 13.8862 22.0865 14.0104 22.2125C14.1345 22.3386 14.282 22.4386 14.4443 22.5069C14.6066 22.5752 14.7805 22.6104 14.9562 22.6105C15.132 22.6107 15.306 22.5757 15.4684 22.5077C15.6308 22.4396 15.7784 22.3398 15.9027 22.2139C16.0271 22.0881 16.1257 21.9386 16.1931 21.7741C16.2605 21.6096 16.2952 21.4333 16.2953 21.2551C16.2957 20.8954 16.1551 20.5502 15.9045 20.2956C15.6538 20.0409 15.3136 19.8976 14.9587 19.8972C14.6038 19.8968 14.2633 20.0393 14.0121 20.2934C13.7609 20.5475 13.6195 20.8924 13.6191 21.2521" fill="#404041"/>
</g>
<path d="M40.5246 12.6817V13.755H31.1692V12.6817H40.5246ZM39.1068 8.79667H33.7143V9.92834H39.4554V11.0017H32.3662V5.48334H39.3508V6.55667H33.7143V7.72334H39.1068V8.79667Z" fill="#222222"/>
<path d="M45.1966 11.2817L45.336 12.3317C44.5341 12.53 43.3487 12.635 41.8031 12.635H40.9663V8.48169H43.279V6.84835H40.9663V5.75169H44.6271V9.56669H42.3377V11.515C43.465 11.515 44.4179 11.4334 45.1966 11.2817ZM47.4395 14.5834H46.1728V9.55502H45.0455V8.45835H46.1728V4.86502H47.4395V14.5834ZM49.4385 15.0617H48.1368V4.66669H49.4385V15.0617Z" fill="#222222"/>
<path d="M51.1002 11.7834C50.6237 11.1067 50.3796 10.2084 50.3796 9.10002C50.3796 7.99169 50.6237 7.09335 51.1002 6.40502C51.5767 5.71669 52.2275 5.37835 53.0526 5.37835C53.8777 5.37835 54.5518 5.71669 55.0283 6.40502C55.5048 7.09335 55.7488 7.99169 55.7488 9.10002C55.7488 10.2084 55.5048 11.095 55.0283 11.7717C54.5518 12.4484 53.901 12.7984 53.0526 12.7984C52.2042 12.7984 51.5767 12.46 51.1002 11.7834ZM54.4472 9.10002C54.4472 8.29502 54.3194 7.65335 54.0637 7.18669C53.808 6.72002 53.471 6.47502 53.0642 6.47502C52.6575 6.47502 52.3437 6.70835 52.0996 7.18669C51.8556 7.66502 51.7277 8.29502 51.7277 9.10002C51.7277 9.90502 51.8556 10.535 52.0996 11.0017C52.3553 11.4684 52.6807 11.7017 53.0642 11.7017C53.4477 11.7017 53.808 11.4684 54.0637 11.0017C54.3194 10.535 54.4472 9.90502 54.4472 9.10002ZM58.6542 15.0617H57.3061V4.66669H58.6542V15.0617Z" fill="#222222"/>
<path d="M65.4996 12.2034C64.5582 12.4367 63.0706 12.5534 61.0136 12.5534H60.0142V5.62335H64.6628V6.72002H61.3623V11.445C63.0823 11.445 64.3955 11.34 65.302 11.1184L65.4996 12.2034ZM68.1028 15.0617H66.7547V9.35669H64.2793V8.20169H66.7547V4.66669H68.1028V15.0617Z" fill="#222222"/>
<path d="M78.3647 13.7084H69.0093V12.6234H78.3647V13.7084ZM78.1671 9.45003L77.4814 10.5117C76.7144 10.3367 75.959 9.9867 75.2152 9.47337C74.4714 8.96003 73.9601 8.3767 73.6812 7.73503C73.4255 8.40003 72.9141 8.99503 72.1587 9.52003C71.4033 10.045 70.6363 10.395 69.8693 10.5584L69.2301 9.45003C69.8228 9.36837 70.3922 9.17003 70.9501 8.8667C71.5079 8.56337 71.996 8.15503 72.3912 7.63003C72.7863 7.10503 72.9839 6.5567 72.9839 5.97337V5.28503H74.4017V5.97337C74.4017 6.32337 74.4831 6.67337 74.6341 7.00003C74.7968 7.33837 75.006 7.6417 75.2733 7.91003C75.5406 8.17837 75.8312 8.4117 76.1566 8.63337C76.482 8.85503 76.819 9.01837 77.1677 9.15837C77.5047 9.29837 77.8417 9.3917 78.1671 9.45003Z" fill="#222222"/>
<path d="M51.0654 20.9417H44.8943V20.2183H51.0654V20.9417ZM47.9508 18.83L47.451 19.4717C47.3 19.4017 47.1489 19.3083 46.9862 19.1683C46.8351 19.0283 46.7189 18.8883 46.6375 18.7367C46.5446 18.935 46.3935 19.1333 46.1843 19.355C45.9635 19.565 45.7427 19.7167 45.5335 19.81L44.9989 19.1683C45.3708 19.0283 45.6729 18.8067 45.8821 18.5033C46.1029 18.2 46.2075 17.8733 46.2075 17.5467V17.2083H47.0792V17.5467C47.0792 18.1883 47.3697 18.62 47.9508 18.8417V18.83ZM45.6148 21.4667H50.2635V23.8H49.3686V22.1783H45.6148V21.4667ZM50.984 19.075L50.5075 19.7283C50.3332 19.67 50.1356 19.5417 49.9148 19.3433C49.694 19.145 49.5313 18.9467 49.4267 18.76C49.3337 18.97 49.1827 19.1917 48.9619 19.4017C48.7527 19.6117 48.5319 19.7633 48.311 19.8567L47.7764 19.2383C48.1367 19.11 48.4273 18.8767 48.6481 18.55C48.8689 18.2233 48.9851 17.885 48.9851 17.535V17.1617H49.8567V17.535C49.8567 17.8733 49.9613 18.1883 50.1589 18.48C50.3565 18.7717 50.6354 18.97 50.984 19.075Z" fill="#222222"/>
<path d="M54.4008 22.0033H51.6697V17.6283H52.5645V19.2033H53.5175V17.6167H54.4124V22.0033H54.4008ZM53.5059 21.2917V19.9033H52.5529V21.2917H53.5059ZM57.3178 23.7767H56.4578V20.3233H55.8999V23.4617H55.0516V17.045H55.8999V19.6117H56.4578V16.9283H57.3178V23.7883V23.7767Z" fill="#222222"/>
<path d="M64.3139 20.9067H58.1428V20.195H60.7809V19.3084H61.6758V20.195H64.3139V20.9067ZM61.2342 18.27C61.0715 18.6434 60.7577 18.97 60.2812 19.2267C59.8163 19.495 59.3166 19.6584 58.782 19.7284L58.4101 19.0284C59.0377 18.97 59.5955 18.7834 60.0604 18.4567C60.5369 18.1417 60.7693 17.7334 60.7693 17.255V17.0567H61.699V17.255C61.699 17.5817 61.8269 17.8734 62.0942 18.1534C62.3615 18.4334 62.6636 18.6434 63.0239 18.7834C63.3842 18.935 63.7328 19.0167 64.0698 19.0284L63.6863 19.74C63.1866 19.67 62.6869 19.495 62.2104 19.2267C61.7223 18.9584 61.3969 18.6434 61.2342 18.27ZM62.9774 21.5717C63.3958 21.805 63.605 22.1084 63.605 22.505C63.605 22.9017 63.3958 23.2167 62.9774 23.4384C62.559 23.66 61.978 23.7767 61.2226 23.7767C60.4671 23.7767 59.8861 23.66 59.4677 23.4384C59.0493 23.2167 58.8401 22.9017 58.8401 22.505C58.8401 22.1084 59.0493 21.7934 59.4677 21.5717C59.8861 21.3384 60.4671 21.2334 61.2109 21.2334C61.9547 21.2334 62.5474 21.35 62.9658 21.5717H62.9774ZM62.2917 22.925C62.559 22.82 62.6869 22.6917 62.6869 22.5167C62.6869 22.3417 62.559 22.2017 62.2917 22.1084C62.0244 22.015 61.6758 21.9567 61.2226 21.9567C60.7693 21.9567 60.4207 22.0034 60.165 22.1084C59.9093 22.2134 59.7699 22.3417 59.7699 22.5167C59.7699 22.6917 59.8977 22.8317 60.165 22.925C60.4323 23.0184 60.7809 23.0767 61.2226 23.0767C61.6642 23.0767 62.0244 23.03 62.2917 22.925Z" fill="#222222"/>
<path fill-rule="evenodd" clip-rule="evenodd" d="M72 1H14C6.8203 1 1 6.8203 1 14C1 21.1797 6.8203 27 14 27H72C79.1797 27 85 21.1797 85 14C85 6.8203 79.1797 1 72 1ZM14 0C6.26801 0 0 6.26801 0 14C0 21.732 6.26802 28 14 28H72C79.732 28 86 21.732 86 14C86 6.26801 79.732 0 72 0H14Z" fill="#222222"/>
</g>
<defs>
<clipPath id="clip0_4_892">
<rect width="86" height="28" rx="14" fill="white"/>
</clipPath>
<clipPath id="clip1_4_892">
<rect width="37.721" height="7.04361" fill="white" transform="translate(-12.9534 18.5554)"/>
</clipPath>
<clipPath id="clip2_4_892">
<rect width="7.18882" height="7.28712" fill="white" transform="translate(11.3638 17.6095)"/>
</clipPath>
</defs>
</svg>
